<svg width="120" height="120" viewBox="0 0 120 120" fill="none" xmlns="http://www.w3.org/2000/svg">
<path d="M86.9844 67.0146C82.8654 82.3999 74.4597 95.5009 63.3887 105.36L62.8896 104.801L62.3906 104.24C73.2494 94.5698 81.4941 81.7204 85.5352 66.626L86.9844 67.0146ZM78.2842 64.6709C73.7811 81.4551 63.5448 95.1638 50.2314 104.231L49.3877 102.991C62.4141 94.1189 72.4281 80.7077 76.835 64.2822L78.2842 64.6709ZM24.6797 50.3203C29.9318 30.7057 50.0831 19.0677 69.6836 24.335L70.5967 24.5918C89.6432 30.2166 100.839 50.045 95.6689 69.3389L95.667 69.3379C92.5202 81.0909 87.1204 91.6512 80.0703 100.668L78.8887 99.7441C85.6013 91.1589 90.7936 81.1492 93.9238 70.0264L94.2197 68.9463C99.1764 50.4414 88.4389 31.4251 70.1709 26.0303L69.2949 25.7842C50.4957 20.732 31.1668 31.894 26.1289 50.709L24.6797 50.3203ZM50.75 57.292C52.1481 52.0938 57.4942 49.0068 62.6943 50.4043C67.8909 51.8011 70.9776 57.1425 69.585 62.3408L69.5986 62.3447C65.0576 79.2634 53.8025 92.5987 39.4668 100.237L38.7617 98.9131C52.7441 91.4626 63.7174 78.4601 68.1475 61.9619L68.1357 61.959C69.3179 57.5599 66.7052 53.0353 62.3047 51.8525C57.9058 50.6705 53.3812 53.2824 52.1982 57.6826C48.3195 72.171 37.4633 82.9034 24.2139 87.2539L23.9795 86.541L23.7451 85.8291C36.3349 81.6954 46.68 71.5941 50.5693 57.9443L50.75 57.292ZM60.1748 59.8301L60.8984 60.0244C56.5451 76.2654 44.9154 88.6242 30.4736 94.5439L30.1895 93.8496L29.9053 93.1562C43.9333 87.406 55.2235 75.4045 59.4502 59.6357L60.1748 59.8301ZM42.7891 55.1777L43.5137 55.3721C40.2611 67.5075 30.7946 76.3125 19.46 79.2881L19.0791 77.8369C29.9142 74.9924 38.958 66.5777 42.0654 54.9834L42.7891 55.1777ZM15.9795 47.9785C22.5217 23.5788 47.6086 9.09167 72.0088 15.6338C96.4083 22.1762 110.896 47.262 104.354 71.6621L102.904 71.2734C109.232 47.6738 95.2201 23.4099 71.6201 17.082C48.0205 10.7546 23.7565 24.7671 17.4287 48.3672L15.9795 47.9785ZM34.8145 53.0332C32.37 62.1766 25.1135 68.7347 16.5156 70.7451L16.1738 69.2842C24.2556 67.3945 31.0696 61.2327 33.3652 52.6465L34.8145 53.0332ZM33.3652 52.6445C37.3274 37.8441 52.5438 29.0568 67.3584 33.0186L68.0479 33.2129C82.4304 37.4566 90.8843 52.4286 86.9844 67.0117L86.2598 66.8184L85.5352 66.624C89.2831 52.6088 80.97 38.2156 66.9707 34.4678C52.9554 30.7199 38.5622 39.0328 34.8145 53.0322L34.0898 52.8379L33.3652 52.6445ZM42.0645 54.9668C44.7519 44.9678 55.0326 39.0308 65.0322 41.7021H65.0342C75.0334 44.3896 80.9707 54.671 78.2988 64.6709L77.5742 64.4766L76.8496 64.2832C79.3076 55.0833 73.845 45.6241 64.6445 43.1514V43.1504C55.445 40.6932 45.9863 46.1564 43.5137 55.3564L42.7891 55.1621L42.0645 54.9668ZM25.3896 50.5137L26.1133 50.707C24.6478 56.1904 20.441 60.2215 15.373 61.7324L14.9453 60.2949C19.537 58.9258 23.3404 55.2766 24.665 50.3203L25.3896 50.5137Z" fill="url(#paint0_linear_5127_4576)"/>
<defs>
<linearGradient id="paint0_linear_5127_4576" x1="14.9453" y1="59.7109" x2="105.925" y2="59.7109" gradientUnits="userSpaceOnUse">
<stop stop-color="#0A60FF"/>
<stop offset="1" stop-color="#02C8FF"/>
</linearGradient>
</defs>
</svg>
