<svg width="120" height="120" viewBox="0 0 120 120" fill="none" xmlns="http://www.w3.org/2000/svg">
<path d="M63 95.25C68.3792 95.25 72.75 99.6208 72.75 105V108H71.25V105C71.25 100.449 67.5508 96.75 63 96.75H57C52.4492 96.75 48.75 100.449 48.75 105V108H47.25V105C47.25 99.6208 51.6208 95.25 57 95.25H63ZM87.041 82.8076C90.8577 79.0076 97.0305 79.0062 100.834 82.8086L100.836 82.8076L102.951 84.9229L101.891 85.9834L99.7754 83.8682L99.7744 83.8701C96.5583 80.654 91.3327 80.6511 88.0996 83.8691L83.8555 88.1152C80.6394 91.3314 80.6373 96.556 83.8555 99.7891L85.9697 101.904L84.9092 102.965L82.7949 100.85L82.793 100.849C78.9925 97.0316 78.9915 90.8571 82.7949 87.0537L87.04 82.8096L87.041 82.8076ZM19.1514 82.7959C22.9684 78.9957 29.142 78.9946 32.9453 82.7979L37.1914 87.0439C40.9918 90.8609 40.9936 97.0344 37.1904 100.838L37.1895 100.837L35.0752 102.952L34.0146 101.892L36.1299 99.7764C39.3453 96.5601 39.3479 91.3354 36.1299 88.1025L31.8848 83.8584C28.6684 80.6421 23.443 80.6405 20.21 83.8594L18.0957 85.9727L17.0352 84.9121L19.1504 82.7979L19.1514 82.7959ZM60 77.25C63.7279 77.25 66.75 80.2721 66.75 84C66.75 87.7279 63.7279 90.75 60 90.75C56.2721 90.75 53.25 87.7279 53.25 84C53.25 80.2721 56.2721 77.25 60 77.25ZM60 78.75C57.1005 78.75 54.75 81.1005 54.75 84C54.75 86.8995 57.1005 89.25 60 89.25C62.8995 89.25 65.25 86.8995 65.25 84C65.25 81.1005 62.8995 78.75 60 78.75ZM43.0352 70.2129C46.763 70.213 49.7852 73.235 49.7852 76.9629C49.7852 80.6907 46.763 83.7128 43.0352 83.7129C39.3072 83.7129 36.2852 80.6908 36.2852 76.9629C36.2852 73.235 39.3072 70.2129 43.0352 70.2129ZM76.9648 70.2129C80.6928 70.2129 83.7148 73.235 83.7148 76.9629C83.7148 80.6908 80.6928 83.7129 76.9648 83.7129C73.237 83.7128 70.2148 80.6907 70.2148 76.9629C70.2148 73.235 73.237 70.213 76.9648 70.2129ZM43.0352 71.7129C40.1357 71.7129 37.7852 74.0634 37.7852 76.9629C37.7852 79.8624 40.1357 82.2129 43.0352 82.2129C45.9345 82.2128 48.2852 79.8623 48.2852 76.9629C48.2852 74.0635 45.9345 71.713 43.0352 71.7129ZM76.9648 71.7129C74.0655 71.713 71.7148 74.0635 71.7148 76.9629C71.7148 79.8623 74.0655 82.2128 76.9648 82.2129C79.8643 82.2129 82.2148 79.8624 82.2148 76.9629C82.2148 74.0634 79.8643 71.7129 76.9648 71.7129ZM15 47.25C20.3792 47.25 24.75 51.6208 24.75 57V63C24.75 68.3792 20.3792 72.75 15 72.75H12V71.25H15C19.5508 71.25 23.25 67.5508 23.25 63V57C23.25 52.4492 19.5508 48.75 15 48.75H12V47.25H15ZM108 48.75H105C100.449 48.75 96.75 52.4492 96.75 57V63C96.75 67.5508 100.449 71.25 105 71.25H108V72.75H105C99.6208 72.75 95.25 68.3792 95.25 63V57C95.25 51.6208 99.6208 47.25 105 47.25H108V48.75ZM36 53.25C39.7279 53.25 42.75 56.2721 42.75 60C42.75 63.7279 39.7279 66.75 36 66.75C32.2721 66.75 29.25 63.7279 29.25 60C29.25 56.2721 32.2721 53.25 36 53.25ZM84 53.25C87.7279 53.25 90.75 56.2721 90.75 60C90.75 63.7279 87.7279 66.75 84 66.75C80.2721 66.75 77.25 63.7279 77.25 60C77.25 56.2721 80.2721 53.25 84 53.25ZM36 54.75C33.1005 54.75 30.75 57.1005 30.75 60C30.75 62.8995 33.1005 65.25 36 65.25C38.8995 65.25 41.25 62.8995 41.25 60C41.25 57.1005 38.8995 54.75 36 54.75ZM84 54.75C81.1005 54.75 78.75 57.1005 78.75 60C78.75 62.8995 81.1005 65.25 84 65.25C86.8995 65.25 89.25 62.8995 89.25 60C89.25 57.1005 86.8995 54.75 84 54.75ZM43.0352 36.2871C46.763 36.2872 49.7852 39.3093 49.7852 43.0371C49.7852 46.765 46.763 49.787 43.0352 49.7871C39.3072 49.7871 36.2852 46.765 36.2852 43.0371C36.2852 39.3092 39.3072 36.2871 43.0352 36.2871ZM76.9648 36.2871C80.6928 36.2871 83.7148 39.3092 83.7148 43.0371C83.7148 46.765 80.6928 49.7871 76.9648 49.7871C73.237 49.787 70.2148 46.765 70.2148 43.0371C70.2148 39.3093 73.237 36.2872 76.9648 36.2871ZM43.0352 37.7871C40.1357 37.7871 37.7852 40.1376 37.7852 43.0371C37.7852 45.9366 40.1357 48.2871 43.0352 48.2871C45.9345 48.287 48.2852 45.9365 48.2852 43.0371C48.2852 40.1377 45.9345 37.7872 43.0352 37.7871ZM76.9648 37.7871C74.0655 37.7872 71.7148 40.1377 71.7148 43.0371C71.7148 45.9365 74.0655 48.287 76.9648 48.2871C79.8643 48.2871 82.2148 45.9366 82.2148 43.0371C82.2148 40.1376 79.8643 37.7871 76.9648 37.7871ZM60 29.25C63.7279 29.25 66.75 32.2721 66.75 36C66.75 39.7279 63.7279 42.75 60 42.75C56.2721 42.75 53.25 39.7279 53.25 36C53.25 32.2721 56.2721 29.25 60 29.25ZM60 30.75C57.1005 30.75 54.75 33.1005 54.75 36C54.75 38.8995 57.1005 41.25 60 41.25C62.8995 41.25 65.25 38.8995 65.25 36C65.25 33.1005 62.8995 30.75 60 30.75ZM85.9854 18.1084L83.8701 20.2236C80.6541 23.4398 80.6519 28.6654 83.8701 31.8984L88.1152 36.1426C91.3317 39.359 96.557 39.3607 99.79 36.1416L101.904 34.0283L102.965 35.0889L100.849 37.2051C97.0316 41.0055 90.8571 41.0075 87.0537 37.2041L82.8096 32.959L82.8076 32.958C79.0071 29.141 79.0063 22.9666 82.8096 19.1631L84.9248 17.0479L85.9854 18.1084ZM37.207 19.1523C41.0071 22.9692 41.0088 29.1429 37.2061 32.9463L32.96 37.1924C29.143 40.9931 22.9686 40.9947 19.165 37.1914V37.1924L17.0498 35.0771L18.1104 34.0166L20.2246 36.1309H20.2256C23.4421 39.3471 28.6685 39.349 31.9014 36.1299L36.1445 31.8857C39.3607 28.6693 39.3624 23.4439 36.1436 20.2109V20.21L34.0303 18.0967L35.0908 17.0361L37.207 19.1523ZM48.75 15C48.75 19.5508 52.4492 23.25 57 23.25H63C67.5508 23.25 71.25 19.5508 71.25 15V12H72.75V15C72.75 20.3792 68.3792 24.75 63 24.75H57C51.6208 24.75 47.25 20.3792 47.25 15V12H48.75V15Z" fill="url(#paint0_linear_5127_4604)"/>
<defs>
<linearGradient id="paint0_linear_5127_4604" x1="12" y1="59.9995" x2="108" y2="59.9995" gradientUnits="userSpaceOnUse">
<stop stop-color="#0A60FF"/>
<stop offset="1" stop-color="#02C8FF"/>
</linearGradient>
</defs>
</svg>
