<svg width="120" height="120" viewBox="0 0 120 120" fill="none" xmlns="http://www.w3.org/2000/svg">
<path d="M23.8125 14.0625C29.1973 14.0625 33.5625 18.4277 33.5625 23.8125C33.5625 24.2106 33.5347 24.6027 33.4883 24.9883L74.4287 33.1641C75.5828 29.0666 79.3459 26.0625 83.8125 26.0625C89.1973 26.0625 93.5625 30.4277 93.5625 35.8125C93.5625 40.2797 90.5573 44.0417 86.459 45.1953L94.6357 86.1357C95.0216 86.0893 95.4141 86.0625 95.8125 86.0625C101.197 86.0625 105.562 90.4277 105.562 95.8125C105.562 101.197 101.197 105.562 95.8125 105.562C90.6802 105.562 86.4778 101.597 86.0947 96.5625H54.5303C54.1472 101.597 49.9448 105.562 44.8125 105.562C39.4277 105.562 35.0625 101.197 35.0625 95.8125C35.0625 92.7789 36.4475 90.0685 38.6201 88.2803L28.7754 74.2041C27.3214 75.0659 25.6253 75.5625 23.8125 75.5625C18.4277 75.5625 14.0625 71.1973 14.0625 65.8125C14.0625 60.6802 18.0283 56.4768 23.0625 56.0938V33.5303C18.0283 33.1472 14.0625 28.9448 14.0625 23.8125C14.0625 18.4277 18.4277 14.0625 23.8125 14.0625ZM44.8125 87.5625C40.2562 87.5625 36.5625 91.2562 36.5625 95.8125C36.5625 100.369 40.2562 104.062 44.8125 104.062C49.3688 104.062 53.0625 100.369 53.0625 95.8125C53.0625 91.2562 49.3688 87.5625 44.8125 87.5625ZM95.8125 87.5625C91.2562 87.5625 87.5625 91.2562 87.5625 95.8125C87.5625 100.369 91.2562 104.062 95.8125 104.062C100.369 104.062 104.062 100.369 104.062 95.8125C104.062 91.2562 100.369 87.5625 95.8125 87.5625ZM50.7393 88.0723C52.8771 89.7117 54.3136 92.2157 54.5303 95.0625H86.0947C86.2568 92.9333 87.1005 90.9964 88.4111 89.4688L65.0293 66.0869L50.7393 88.0723ZM65.8652 64.8008L89.4717 88.4082C90.5304 87.5007 91.7854 86.8172 93.165 86.4287L84.9883 45.4883C84.6027 45.5347 84.2106 45.5625 83.8125 45.5625C82.1205 45.5625 80.5294 45.1312 79.1426 44.373L65.8652 64.8008ZM32.8447 62.1416C33.3058 63.275 33.5625 64.5135 33.5625 65.8125C33.5625 68.8461 32.1766 71.5555 30.0039 73.3438L39.8496 87.4199C41.3035 86.5583 42.9999 86.0625 44.8125 86.0625C46.5048 86.0625 48.0964 86.4935 49.4834 87.252L63.9443 65.0029L51.6699 52.7285L32.8447 62.1416ZM23.8125 57.5625C19.2562 57.5625 15.5625 61.2562 15.5625 65.8125C15.5625 70.3688 19.2562 74.0625 23.8125 74.0625C28.3688 74.0625 32.0625 70.3688 32.0625 65.8125C32.0625 61.2562 28.3688 57.5625 23.8125 57.5625ZM53.085 52.0205L64.7812 63.7168L77.8867 43.5537C76.9127 42.807 76.0828 41.8817 75.4482 40.8252L53.085 52.0205ZM30.1553 31.2129C28.6276 32.5235 26.6916 33.3682 24.5625 33.5303V56.0938C27.7982 56.34 30.5923 58.163 32.1758 60.7988L50.5527 51.6104L30.1553 31.2129ZM33.1953 26.459C32.8069 27.8388 32.1234 29.0935 31.2158 30.1523L51.9678 50.9033L74.7793 39.4824C74.3185 38.3494 74.0625 37.111 74.0625 35.8125C74.0625 35.4138 74.0892 35.021 74.1357 34.6348L33.1953 26.459ZM83.8125 27.5625C79.2562 27.5625 75.5625 31.2562 75.5625 35.8125C75.5625 40.3688 79.2562 44.0625 83.8125 44.0625C88.3688 44.0625 92.0625 40.3688 92.0625 35.8125C92.0625 31.2562 88.3688 27.5625 83.8125 27.5625ZM23.8125 15.5625C19.2562 15.5625 15.5625 19.2562 15.5625 23.8125C15.5625 28.3688 19.2562 32.0625 23.8125 32.0625C28.3688 32.0625 32.0625 28.3688 32.0625 23.8125C32.0625 19.2562 28.3688 15.5625 23.8125 15.5625Z" fill="url(#paint0_linear_5127_4561)"/>
<defs>
<linearGradient id="paint0_linear_5127_4561" x1="14.0625" y1="59.8121" x2="105.563" y2="59.8121" gradientUnits="userSpaceOnUse">
<stop stop-color="#0A60FF"/>
<stop offset="1" stop-color="#02C8FF"/>
</linearGradient>
</defs>
</svg>
