<svg width="120" height="120" viewBox="0 0 120 120" fill="none" xmlns="http://www.w3.org/2000/svg">
<path d="M97.3125 14.0625C101.869 14.0625 105.562 17.7562 105.562 22.3125C105.562 26.8688 101.869 30.5625 97.3125 30.5625C95.3046 30.5625 93.4647 29.8447 92.0342 28.6523L75.9639 44.7227C81.4834 47.9104 86.4928 52.8161 90.4561 59.4229C90.5983 59.6602 90.5984 59.957 90.4561 60.1943C86.4915 66.8033 81.4798 71.7098 75.958 74.8975L92.0332 90.9727C93.4638 89.78 95.3044 89.0625 97.3125 89.0625C101.869 89.0625 105.562 92.7562 105.562 97.3125C105.562 101.869 101.869 105.562 97.3125 105.562C92.7562 105.562 89.0625 101.869 89.0625 97.3125C89.0625 95.3044 89.78 93.4638 90.9727 92.0332L74.5879 75.6484C69.8862 78.0864 64.8561 79.3125 59.8125 79.3125C54.7681 79.3125 49.7365 78.0872 45.0342 75.6484L28.6504 92.0322C29.8438 93.4631 30.5625 95.3036 30.5625 97.3125C30.5625 101.869 26.8688 105.562 22.3125 105.562C17.7562 105.562 14.0625 101.869 14.0625 97.3125C14.0625 92.7562 17.7562 89.0625 22.3125 89.0625C24.3199 89.0625 26.1594 89.7799 27.5898 90.9717L43.665 74.8965C38.144 71.7088 33.1331 66.8026 29.1689 60.1943C29.0266 59.957 29.0267 59.6602 29.1689 59.4229C33.1326 52.8155 38.1419 47.9084 43.6621 44.7207L27.5918 28.6504C26.161 29.8435 24.3211 30.5625 22.3125 30.5625C17.7562 30.5625 14.0625 26.8688 14.0625 22.3125C14.0625 17.7562 17.7562 14.0625 22.3125 14.0625C26.8688 14.0625 30.5625 17.7562 30.5625 22.3125C30.5625 24.3201 29.8444 26.1594 28.6523 27.5898L45.0322 43.9697C49.7351 41.5303 54.7674 40.3047 59.8125 40.3047C64.8583 40.3047 69.8913 41.5306 74.5947 43.9707L90.9736 27.5918C89.7808 26.1611 89.0625 24.3209 89.0625 22.3125C89.0625 17.7562 92.7562 14.0625 97.3125 14.0625ZM22.3125 90.5625C18.5846 90.5625 15.5625 93.5846 15.5625 97.3125C15.5625 101.04 18.5846 104.062 22.3125 104.062C26.0404 104.062 29.0625 101.04 29.0625 97.3125C29.0625 93.5846 26.0404 90.5625 22.3125 90.5625ZM97.3125 90.5625C93.5846 90.5625 90.5625 93.5846 90.5625 97.3125C90.5625 101.04 93.5846 104.062 97.3125 104.062C101.04 104.062 104.062 101.04 104.062 97.3125C104.062 93.5846 101.04 90.5625 97.3125 90.5625ZM59.8125 41.8047C48.9744 41.8047 38.0706 47.7608 30.6904 59.8086C38.0706 71.8562 48.9745 77.8125 59.8125 77.8125C70.6504 77.8125 81.5534 71.8559 88.9336 59.8086C81.5534 47.7611 70.6505 41.8047 59.8125 41.8047ZM59.8125 47.0625C66.8541 47.0625 72.5625 52.7709 72.5625 59.8125C72.5625 66.8541 66.8541 72.5625 59.8125 72.5625C52.7709 72.5625 47.0625 66.8541 47.0625 59.8125C47.0625 52.7709 52.7709 47.0625 59.8125 47.0625ZM59.8125 48.5625C53.5993 48.5625 48.5625 53.5993 48.5625 59.8125C48.5625 66.0257 53.5993 71.0625 59.8125 71.0625C66.0257 71.0625 71.0625 66.0257 71.0625 59.8125C71.0625 53.5993 66.0257 48.5625 59.8125 48.5625ZM22.3125 15.5625C18.5846 15.5625 15.5625 18.5846 15.5625 22.3125C15.5625 26.0404 18.5846 29.0625 22.3125 29.0625C26.0404 29.0625 29.0625 26.0404 29.0625 22.3125C29.0625 18.5846 26.0404 15.5625 22.3125 15.5625ZM97.3125 15.5625C93.5846 15.5625 90.5625 18.5846 90.5625 22.3125C90.5625 26.0404 93.5846 29.0625 97.3125 29.0625C101.04 29.0625 104.062 26.0404 104.062 22.3125C104.062 18.5846 101.04 15.5625 97.3125 15.5625Z" fill="url(#paint0_linear_5127_4592)"/>
<defs>
<linearGradient id="paint0_linear_5127_4592" x1="14.0625" y1="59.8121" x2="105.563" y2="59.8121" gradientUnits="userSpaceOnUse">
<stop stop-color="#0A60FF"/>
<stop offset="1" stop-color="#02C8FF"/>
</linearGradient>
</defs>
</svg>
