<?xml version="1.0" encoding="UTF-8"?>
<svg id="Layer_1" xmlns="http://www.w3.org/2000/svg" version="1.1" viewBox="0 0 109.4 26.4">
  <!-- Generator: Adobe Illustrator 30.1.0, SVG Export Plug-In . SVG Version: 2.1.1 Build 136)  -->
  <defs>
    <style>
      .st0 {
        fill: #fff;
      }
    </style>
  </defs>
  <path class="st0" d="M34.9,3.4c-2.8-.5-5.6-1.5-8-2.9-.4-.3-.4-.4-.4-.4,0-.3,2.1.4,2.1.4,1,.3,1.9.7,2.8,1.1,1.2.5,2.4,1.1,3.5,1.8Z"/>
  <path class="st0" d="M18,19c-.9-1.7-1.4-3.6-1.4-5.5,0-.8.2-1.6.4-2.4.6-1.8,3.1-2.9,3.1-2.9,5.6-2.8,13.5-4.4,14.6-4.7-.7-.4-1.4-.8-2.1-1.1-1.4-.7-2.7-1.2-2.7-1.2-1.1-.5-2.2-.8-3.3-1,0,0-.2,0-.3,0l-8.3,6.9c-.2.2-.4.3-.7.4h-.8c-.2.1-.3.1-.5.1-1-.2-2.1-.4-3.1-.4-.1,0-.3,0-.4,0-.4,0-.7.7-.7,1.6s.3,1.6.7,1.6c.2,0,.5,0,.7.1.2,0,.3.5.3.5.2.5-.4,1-.4,1-.2.2-.7.7-.7.7L0,26.1h21.5c-.2-.6-.5-1.2-.8-1.7l-2.7-5.4Z"/>
  <path class="st0" d="M23.5,10.1c.2-.3.5-.6.9-.8l9.6-5.4c-4.1,1-8.1,2.5-11.9,4.5-.8.4-1.4,1-1.8,1.8-.5,1.1-.7,2.4-.6,3.6.2,1.6.6,3.1,1.1,4.6.7,2.1,1.1,4.4,1.3,6.6.3-4.7.9-12.7.9-12.7,0,0,0-.2,0-.3l1.5-.7s.2,0,.2-.2c0,0,0-.1-.2-.3l-1-.8Z"/>
  <path class="st0" d="M109.2,12.4c0,.5-.4,1-1,1-.5,0-1-.4-1-1,0-.5.4-1,1-1,.5,0,1,.4,1,1h0M107.7,13.1h.2v-.5h.1c.2,0,.2,0,.4.3v.2h.4l-.2-.2c0-.1-.2-.2-.3-.3.2,0,.4-.2.4-.4h0c0-.1,0-.3-.4-.3h-.6v1.3M107.9,12.4v-.4h.3c.1,0,.2,0,.2.2s0,.2-.3.2h-.3ZM109.4,12.5c0-.7-.5-1.2-1.2-1.2-.7,0-1.2.5-1.2,1.2,0,.7.5,1.2,1.2,1.2.3,0,.6-.1.8-.3.2-.2.3-.5.3-.8"/>
  <path class="st0" d="M39,18h-.3c-.3-2.5-1.5-4.8-4.3-4.8s-4.3,3.8-4.3,6.3,1,6.2,4.3,6.2,4.3-1.7,4.7-4.4h.3c0-.1,1,3.4,1,3.4-2,1.1-4.3,1.7-6.5,1.6-3.9,0-7.7-2.4-7.7-6.9s3.8-6.9,7.7-6.9c2.2,0,4.4.4,6.4,1.3l-1.2,4.1Z"/>
  <path class="st0" d="M48.1,21.9c0,1.4-.5,3.7-2.3,3.7-1.1,0-1.9-1.1-1.8-2.2,0,0,0,0,0,0,0-2.3,1.7-3.3,3.8-3.3h.4v1.8M48.7,26h3.4v-.3c-.9-.2-1.1-1-1.1-1.9v-4.1c0-3.5-1.8-4.6-4.6-4.6-1.8,0-3.6.4-5.3,1l.9,3.2h.3c.5-2.1,1.6-3.5,3.3-3.5,1.5,0,2.4,1.1,2.4,2.8v.9h-.4c-2.9,0-6.9.8-6.9,3.7s2.2,3.1,4.3,3.1c1.4,0,2.6-.8,3.2-2l.5,1.7Z"/>
  <path class="st0" d="M59.3,18.7c-.3-.4-.7-.7-1.2-.7-1.2,0-1.6,1.6-1.6,3.1v1.6c0,1.7.3,2.9,1.4,3.2v.3c-1,0-1.9,0-2.9,0s-1.9,0-2.9,0v-.3c1.1-.3,1.4-1.5,1.4-3.2v-4.3c0-1.4-.7-1.9-1.3-2v-.3c1.4-.1,2.8-.3,4.1-.6,0,.5,0,1.1,0,1.7v1.2h0c.4-1.4,1.5-3.3,3.2-3.3h.9l-1.2,3.5Z"/>
  <path class="st0" d="M64.9,17.4h0s0,0,0,0c.6-1.5,2-2.4,3.6-2.3,1.9-.1,3.6,1.3,3.7,3.2,0,.1,0,.2,0,.3v5.4c-.1.8.5,1.6,1.3,1.7,0,0,0,0,0,0v.3c-.9,0-2,0-2.8,0s-1.8,0-2.7,0v-.3c.8-.1,1.4-.9,1.2-1.7v-4.8c0-1.3-.3-3.1-2-3.1s-2.2,2.6-2.2,3.9v2.4c0,1.7.3,2.9,1.4,3.2v.3c-1,0-1.9,0-2.9,0s-1.9,0-2.9,0v-.3c1.1-.3,1.4-1.5,1.4-3.2v-4.3c0-1.4-.6-1.9-1.3-2v-.3c1.4-.1,2.7-.3,4.1-.6v2Z"/>
  <path class="st0" d="M77.9,23.5c0,1.2.3,2.1,1.4,2.2v.3c-1,0-1.9,0-2.9,0s-1.9,0-2.9,0v-.3c1.1-.2,1.4-1,1.4-2.2v-6.1c0-.6-.5-1.1-1.1-1.2v-.3c1.4-.1,2.7-.3,4.1-.6v8.1M77.9,12.9c0,.9-.8,1.5-1.6,1.4s-1.5-.8-1.4-1.6c0-.8.7-1.4,1.5-1.4.9,0,1.6.8,1.5,1.6"/>
  <path class="st0" d="M84.7,25.7c0,.2-.3.6-.4.6h0c0,0-.2-.2-.4-.6l-3.8-7.3c-1.1-1.9-.9-1.6-1.9-2.2v-.4c1,0,2,0,2.8,0s2,0,2.9,0v.3c-.5.1-1.2.4-1.2.9,0,.3,0,.5.2.7l2.6,4.6,1.5-2.7c.4-.7.6-1.6.7-2.4,0-.6-.5-1-1.3-1.2v-.3c.7,0,1.4,0,2,0s1.4,0,2.1,0v.3c-1.2.8-2,1.9-2.5,3.2l-3.2,6.4Z"/>
  <path class="st0" d="M97.7,21.9c0,1.4-.5,3.7-2.3,3.7-1.1,0-1.9-1.1-1.9-2.2,0,0,0,0,0,0,0-2.3,1.7-3.3,3.8-3.3h.4v1.8ZM98.3,26h3.4v-.3c-.9-.2-1.1-1-1.1-1.9v-4.1c0-3.5-1.8-4.6-4.6-4.6-1.8,0-3.6.4-5.3,1l.8,3.2h.3c.5-2.1,1.6-3.5,3.3-3.5,1.5,0,2.4,1.1,2.4,2.8v.9h-.4c-2.9,0-6.9.8-6.9,3.7s2.2,3.1,4.3,3.1c1.4,0,2.6-.8,3.2-2l.5,1.7Z"/>
  <path class="st0" d="M103.1,13.7c0-.9-.3-1.3-1.2-1.5v-.3c1.4-.2,2.8-.4,4.2-.7,0,.6,0,1.4,0,2.2v9.2c0,1.7.3,2.9,1.4,3.2v.3c-1,0-1.9,0-2.9,0s-1.9,0-2.9,0v-.3c1.1-.3,1.4-1.5,1.4-3.2v-8.8Z"/>
</svg>