<?xml version="1.0" encoding="UTF-8"?>
<svg id="a" xmlns="http://www.w3.org/2000/svg" version="1.1" viewBox="0 0 71.7 36">
  <!-- Generator: Adobe Illustrator 30.1.0, SVG Export Plug-In . SVG Version: 2.1.1 Build 136)  -->
  <defs>
    <style>
      .st0 {
        fill: #fff;
      }
    </style>
  </defs>
  <rect class="st0" x="67.1" y="31.1" width="4.6" height="4.6"/>
  <polygon class="st0" points="57.8 10.7 60.5 31.2 63.3 10.7 67.5 10.7 63.5 35.7 57.5 35.7 53.6 10.7 57.8 10.7"/>
  <path class="st0" d="M2.3,10.7H0v3.3h2.3v21.6h4.1V14h2.9v-3.3h-2.9v-5.1c0-.7.2-1.3.5-1.7.4-.4.9-.6,1.6-.6h.8V0h-1.5c-1.8,0-3.6.4-4.4,1.2-.8.8-1.1,2-1.1,3.8v5.7h0Z"/>
  <rect class="st0" x="10.7" y="10.7" width="4.2" height="25"/>
  <path class="st0" d="M34,24.6h8.7v-7.7c0-4.6-2.2-6.5-6.4-6.5s-6.4,1.9-6.4,6.5v12.6c0,4.2,2.6,6.4,6.4,6.4s6.4-1.8,6.4-6.4v-2h-4v2.4c0,1.7-.6,2.9-2.3,2.9s-2.3-1.2-2.3-2.9v-5.4ZM34,16.1c0-1.4.4-2.9,2.3-2.9s2.3,1.4,2.3,2.9v5.2h-4.6v-5.2h0Z"/>
  <path class="st0" d="M24.2,21.5c-3.1-2.8-3.4-3.1-3.4-5.2s.1-2.8,1.7-2.8,1.8,1,1.8,2.8v2.3h4v-3.8c0-2.9-2.3-4.4-5.9-4.4s-5.8,1.2-5.8,5.9q0,.8,0,.5c0,1.5,0,3.8,3.7,7l1,.9c2.7,2.3,3,2.5,3,5.3,0,1.7-.1,2.9-1.9,2.9s-1.9-1.3-1.9-2.1v-3.2h-4.2v3.3c0,4,2.6,5.1,6.1,5.1s6.1-1,6.1-6.2v-.4c0-3.6-.7-4.6-4.3-7.8h0Z"/>
  <path class="st0" d="M48.2,13.3v-2.6h-3.8v24.9h4.1v-17.4c0-1.3.4-2.2,1.2-2.8.7-.5,1.6-.7,2.7-.7v-4.4c-2.2,0-3.1.5-4.2,2.8h0Z"/>
</svg>