<?xml version="1.0" encoding="UTF-8"?>
<svg id="Layer_2" data-name="Layer 2" xmlns="http://www.w3.org/2000/svg" viewBox="0 0 176.5 29.6">
  <defs>
    <style>
      .cls-1 {
        fill: #fff;
      }
    </style>
  </defs>
  <g id="_レイヤー_1" data-name="レイヤー 1">
    <g>
      <path class="cls-1" d="M134.5.1v23c0,1.5.7,2.3,2.2,2.3h7.6v2.6c0,.3-.2.5-.5.5h-12.3c-3.8,0-4.4-2.1-4.4-4V1.7c0-1.1.4-1.6,1.7-1.6h5.7"/>
      <path class="cls-1" d="M120.4.1v26.9c0,1.2-.5,1.5-1.5,1.5h-5.8V1.6c0-.9.3-1.5,1.6-1.5h5.7"/>
      <path class="cls-1" d="M0,4C0,1.8,0,.1,3.6.1h15.6v2.7c0,.2-.1.4-.4.4h-9.4c-1.2,0-1.8.6-1.8,1.9v7.2h11v2.9c0,.3-.2.4-.4.4H7.6v11.4c0,1.1-.6,1.5-1.8,1.5H0V4"/>
      <path class="cls-1" d="M30.5.1v21.7c0,1.9.3,3.2,1.6,3.9,1.7,1,4.7,1,6.5,0,1.2-.7,1.7-1.8,1.7-3.9V1.5c0-.9.3-1.4,1.6-1.4h5.7v21c0,4.9-3.1,6.9-5.8,7.6-3.6,1-9.1,1-12.5,0-4.1-1.2-6-3.6-6-7.6V1.5c0-.9.3-1.5,1.4-1.5h5.8"/>
      <path class="cls-1" d="M168.2.1c-1.4,0-2.3.7-2.6,2l-4.6,19.6h-.1L156,.1h-6.5c-1.3,0-1.7.6-1.7,1.7v26.8h2.8c.4,0,.6-.2.6-.7V5.4h.4l5.9,23.1h3.9c1.5,0,2-.6,2.4-2l5.3-21.1h.4v23.1h5.2c1.3,0,1.8-.5,1.8-1.7V.1h-8.3"/>
      <path class="cls-1" d="M82.1,15.5h-7.3v13h5.8c1,0,1.5-.3,1.5-1.5v-11.5"/>
      <path class="cls-1" d="M81.7,10c.3-.2.4-.4.4-.8V.1h-5.7c-1.3,0-1.6.6-1.6,1.5v13.8l6.9-5.4"/>
      <path class="cls-1" d="M56.7,26.3c3.2-.4,4.2-2.3,4.2-5.1V1.6c0-1.2.6-1.5,1.4-1.5h5.8v18.5c0,4.5-1,6.8-3.6,8.8-1.4,1-3.8,2.2-9.2,2.2-3,0-4.4-.2-4.6-.2-.3-.1-.4-.2-.4-.4v-2.4c1.5-.1,4.3,0,6.4-.3"/>
      <path class="cls-1" d="M93.2.1c-3.6,0-3.6,1.8-3.6,3.9v7.3c0,.2-.1.2-.1.3l-5,3.9h5.1v13h5.8c1.2,0,1.8-.4,1.8-1.5v-11.5h10.6c.2,0,.4-.1.4-.4v-2.9h-11v-7.2c0-1.3.6-1.9,1.9-1.9h9.4c.3,0,.4-.2.4-.4V.1h-15.7"/>
    </g>
  </g>
</svg>