<?xml version="1.0" encoding="UTF-8"?>
<svg id="Layer_2" data-name="Layer 2" xmlns="http://www.w3.org/2000/svg" viewBox="0 0 950.01 134.46">
  <defs>
    <style>
      .cls-1 {
        fill: #fff;
      }
    </style>
  </defs>
  <g id="Layer_1-2" data-name="Layer 1">
    <g id="liveoak-primarylogo-full-color">
      <g id="Group_132" data-name="Group 132">
        <g id="Group_131" data-name="Group 131">
          <g id="Group_130" data-name="Group 130">
            <circle id="Ellipse_42" data-name="Ellipse 42" class="cls-1" cx="280.85" cy="36.05" r="8.68"/>
            <path id="Path_3652" data-name="Path 3652" class="cls-1" d="M225.86,33.43h-12.32v81.7h52.29v-11.96h-39.96V33.43Z"/>
            <rect id="Rectangle_351" data-name="Rectangle 351" class="cls-1" x="274.69" y="54.25" width="12.32" height="60.88"/>
            <path id="Path_3653" data-name="Path 3653" class="cls-1" d="M327.91,100.09h-2.43l-16.25-45.84h-12.88l23.06,60.88h13.63l24.37-60.88h-12.6l-16.9,45.84Z"/>
            <path id="Path_3654" data-name="Path 3654" class="cls-1" d="M413.43,61.81c-2.81-2.82-6.18-5.01-9.9-6.44-3.95-1.55-8.17-2.34-12.42-2.33-4.3-.04-8.56.82-12.51,2.52-3.72,1.6-7.11,3.88-9.99,6.72-2.89,2.88-5.17,6.31-6.72,10.08-1.64,4-2.46,8.28-2.43,12.6-.06,4.25.74,8.48,2.33,12.42,1.46,3.77,3.72,7.18,6.63,9.99,2.93,2.85,6.39,5.1,10.18,6.63,4.22,1.66,8.72,2.48,13.26,2.44,6.63,0,12.14-1.31,16.71-4.01,4.46-2.69,8.28-6.32,11.2-10.64l-9.99-5.98c-1.74,2.89-4.14,5.32-7,7.1-3.26,1.89-6.98,2.83-10.74,2.71-5.6,0-10.27-1.49-13.91-4.48-3.64-2.97-6.04-7.2-6.72-11.86h51.17v-5.04c.06-4.25-.73-8.48-2.33-12.42-1.67-3.7-3.98-7.09-6.82-10ZM371.61,78.9c1.14-4.28,3.59-8.1,7-10.92,3.55-2.83,7.98-4.31,12.51-4.2,4.52-.16,8.97,1.22,12.6,3.92,3.47,2.78,5.75,6.79,6.35,11.2h-38.46Z"/>
            <path id="Path_3655" data-name="Path 3655" class="cls-1" d="M576.36,59.76c-2.48-2.24-5.41-3.93-8.59-4.95-3.77-1.21-7.71-1.8-11.67-1.77-5.88-.15-11.69,1.2-16.9,3.92-4.5,2.47-8.44,5.84-11.58,9.9l10.83,6.35c3.49-6.31,10.25-10.1,17.46-9.8,5.41,0,9.43,1.31,11.95,3.83,2.57,2.64,3.96,6.22,3.83,9.9v1.03h-18.02c-8.59,0-15.31,1.77-20.17,5.32-4.86,3.55-7.28,8.49-7.28,14.84-.01,2.47.46,4.91,1.4,7.19.94,2.2,2.34,4.17,4.11,5.79,1.95,1.72,4.24,2.99,6.72,3.74,3.02.95,6.17,1.39,9.34,1.31,4.86.05,9.66-1.07,14-3.27,3.34-1.68,6.27-4.07,8.59-7h1.31v9.06h11.76v-37.63c.06-3.41-.54-6.81-1.77-9.99-1.15-2.96-2.97-5.61-5.32-7.75ZM571.78,88.7c0,10.74-11.2,17.09-21.75,17.09-7.94,0-11.3-3.36-11.3-8.5,0-8.96,10.46-9.43,15.78-9.43h17.27v.84h0Z"/>
            <path id="Path_3656" data-name="Path 3656" class="cls-1" d="M475.8,31.75c-23.31,0-42.2,18.89-42.2,42.2s18.89,42.2,42.2,42.2,42.2-18.89,42.2-42.2c0-23.3-18.9-42.19-42.2-42.2ZM475.8,104.48c-16.81.26-30.65-13.16-30.91-29.97s13.16-30.65,29.97-30.91c16.81-.26,30.65,13.16,30.91,29.97,0,.16,0,.31,0,.47.12,16.68-13.29,30.3-29.97,30.44Z"/>
            <path id="Path_3657" data-name="Path 3657" class="cls-1" d="M920.41,54.25l-23.06,25.11c-1.5,1.67-3.64,2.62-5.88,2.61h-7v-48.55h-6.16v81.7h6.16v-27.73h7c2.24,0,4.38.94,5.88,2.61l23.06,25.12h8.03l-28.48-30.44,28.48-30.44h-8.03,0Z"/>
            <path id="Path_3658" data-name="Path 3658" class="cls-1" d="M716.59,72.74c3.47-1.52,6.43-4.02,8.5-7.19,2.01-3.29,3.04-7.07,2.99-10.92.05-2.96-.55-5.89-1.77-8.59-1.12-2.56-2.81-4.83-4.95-6.63-2.22-1.93-4.79-3.42-7.56-4.39-3.09-1.07-6.35-1.61-9.62-1.59h-34.54v81.7h36.41c3.33.02,6.64-.52,9.8-1.59,2.82-1.02,5.42-2.57,7.66-4.57,2.15-2,3.87-4.41,5.04-7.1,1.22-2.89,1.83-6.01,1.77-9.15.1-4.42-1.17-8.75-3.64-12.42-2.48-3.52-6.01-6.17-10.08-7.56ZM676.07,39.41h28.01c2.39-.04,4.76.37,7,1.21,2.02.7,3.89,1.77,5.51,3.17,1.57,1.32,2.82,2.98,3.64,4.86.86,1.91,1.31,3.98,1.31,6.07.02,2.08-.36,4.14-1.12,6.07-.74,1.85-1.86,3.54-3.27,4.95-1.49,1.41-3.23,2.51-5.14,3.27-2.18.8-4.49,1.22-6.82,1.21h-29.13v-30.81h0ZM722.38,99.25c-.88,1.97-2.15,3.75-3.73,5.23-1.65,1.52-3.59,2.7-5.7,3.46-2.3.87-4.73,1.31-7.19,1.31h-29.78v-33.24h29.69c5.6,0,9.99,1.59,13.16,4.67,3.2,3.14,4.96,7.47,4.85,11.95.05,2.28-.39,4.54-1.31,6.63Z"/>
            <path id="Path_3659" data-name="Path 3659" class="cls-1" d="M787.36,59.76c-2.36-2.1-5.12-3.69-8.12-4.67-3.62-1.17-7.4-1.74-11.2-1.68-10.26-.41-20.1,4.14-26.42,12.23l5.14,3.92c2.19-3.3,5.13-6.02,8.59-7.94,3.27-1.77,7.47-2.71,12.6-2.71,6.35,0,11.2,1.49,14.57,4.57,3.43,3.16,5.3,7.66,5.14,12.32v3.74h-20.44c-3.86-.06-7.72.35-11.48,1.21-3.1.71-6.04,1.98-8.68,3.74-2.28,1.53-4.16,3.58-5.51,5.98-1.35,2.53-2.02,5.35-1.96,8.22,0,2.27.44,4.53,1.31,6.63.85,2.18,2.23,4.1,4.02,5.6,1.98,1.73,4.3,3.03,6.82,3.83,3.13,1.03,6.41,1.53,9.71,1.49,5.14.03,10.23-1.02,14.94-3.08,4.49-1.89,8.42-4.91,11.39-8.78v10.74h6.26v-39.59c.01-3-.52-5.97-1.59-8.78-1.26-2.61-2.97-4.98-5.05-7ZM787.64,90.85c.02,4.49-1.76,8.79-4.95,11.95l-.09.09c-1.89,1.82-4.02,3.36-6.35,4.57-2.24,1.19-4.63,2.06-7.1,2.61-2.39.56-4.83.84-7.28.84-2.41.04-4.8-.3-7.1-1.03-1.81-.58-3.49-1.5-4.95-2.71-1.25-1.07-2.24-2.41-2.89-3.92-.6-1.55-.92-3.19-.93-4.85-.21-4.08,1.83-7.95,5.32-10.08,3.55-2.24,8.78-3.46,15.87-3.46h20.36v5.98h.09Z"/>
            <path id="Path_3660" data-name="Path 3660" class="cls-1" d="M941.98,100.09c-4.43,0-8.03,3.6-8.03,8.03s3.6,8.03,8.03,8.03c4.43,0,8.03-3.6,8.03-8.03s-3.59-8.03-8.03-8.03h0ZM941.98,115.31c-3.97,0-7.19-3.22-7.19-7.19,0-3.97,3.22-7.19,7.19-7.19,3.97,0,7.19,3.22,7.19,7.19h0c0,3.97-3.22,7.19-7.19,7.19h0Z"/>
            <path id="Path_3661" data-name="Path 3661" class="cls-1" d="M944.22,108.78c.18-.16.34-.35.47-.56.13-.2.23-.42.28-.65.08-.24.11-.49.09-.75-.02-.35-.08-.69-.19-1.03-.12-.32-.31-.61-.56-.84l-.84-.56c-.36-.12-.74-.18-1.12-.19h-3.08v7.84h.93v-2.71h2.43l1.49,2.71h1.03l-1.68-2.99c.28,0,.54-.09.75-.28ZM942.35,108.59h-2.15v-3.46h2.15c.25-.02.51.01.75.09.19.09.47.19.56.37.16.16.28.35.37.56.12.43.12.88,0,1.31-.17.42-.51.76-.93.93-.23.13-.49.19-.75.19Z"/>
            <path id="Path_3662" data-name="Path 3662" class="cls-1" d="M856.55,60.88c-2.35-2.45-5.22-4.33-8.4-5.51-3.49-1.31-7.2-1.95-10.93-1.87-4.9-.12-9.73,1.18-13.91,3.74-3.01,1.82-5.59,4.27-7.56,7.19h-1.4v-9.71h-6.07v60.41h6.26v-33.71c-.03-3.01.54-5.99,1.68-8.78,2.1-5.28,6.24-9.48,11.48-11.67,2.72-1.14,5.64-1.71,8.59-1.68,6.82,0,12.04,1.96,15.68,5.97s5.5,9.34,5.5,15.97v33.8h6.35v-33.8c.04-3.97-.59-7.91-1.87-11.67-1.23-3.22-3.07-6.16-5.41-8.68Z"/>
            <path id="Path_3663" data-name="Path 3663" class="cls-1" d="M636.95,54.25l-24.65,26.8c-.56.59-1.34.92-2.15.93h-1.12v-48.56h-12.05v81.7h12.04v-27.73h1.12c.81.01,1.58.35,2.15.93l24.55,26.8h15.31l-28.48-30.45,28.48-30.44h-15.22Z"/>
          </g>
        </g>
      </g>
      <path id="Path_3664" data-name="Path 3664" class="cls-1" d="M173.76,61.63c-3.96-.02-7.2,3.14-7.28,7.1-3.02-2.7-7.66-2.44-10.37.58-.74.83-1.28,1.81-1.58,2.87-2.79-.3-5.49-1.16-7.94-2.52-1.88-1.19-3.66-2.53-5.32-4.01-.72-.66-.77-1.79-.11-2.51,0,0,0,0,.01-.01,1.75-2.14,3.72-4.08,5.88-5.79,1.36,1.44,3.25,2.25,5.23,2.24,1.82-.02,3.57-.68,4.95-1.87,1.55,3.77,5.86,5.56,9.62,4.01,3.77-1.55,5.56-5.86,4.01-9.62-1.14-2.77-3.83-4.57-6.82-4.57-1.82.02-3.57.68-4.95,1.87-1.04-2.55-3.42-4.32-6.16-4.57,1.74-1.38,2.74-3.48,2.71-5.7,0-4.07-3.3-7.38-7.37-7.38-4.07,0-7.38,3.3-7.38,7.37h0c-.04,3.79,2.85,6.97,6.63,7.29-1.74,1.38-2.74,3.48-2.71,5.7-.01,1.2.28,2.39.84,3.46-1.67.75-3.27,1.65-4.76,2.71-.73.6-1.42,1.26-2.05,1.96-1.49,1.49-3.17,3.27-4.57,3.36-.44.03-.89-.03-1.31-.19,3.82-1.4,5.78-5.63,4.38-9.45-1.4-3.82-5.63-5.78-9.45-4.38-2.91,1.06-4.84,3.83-4.83,6.93-.04,2.12.89,4.15,2.52,5.51-1.27.17-2.5.55-3.64,1.12,0-.28.09-.56.09-.84,0-4.07-3.3-7.38-7.37-7.38-4.07,0-7.38,3.3-7.38,7.37h0c0,3.13,1.98,5.92,4.95,6.91-3.64,2.52-8.31,5.7-12.32,7.94-.28.19-.93.47-1.31.09-.37-.28-.56-1.12-.19-2.24,1.06-2.71,2.28-5.36,3.64-7.94,4.01-7.56,9.15-20.63,9.71-22.03.11-.21.2-.43.28-.65.75-2.05,1.87-4.95,5.79-4.86,2.8.09,5.88,0,8.4-1.68,1.2.85,2.64,1.3,4.11,1.31,4.07,0,7.38-3.3,7.38-7.38s-3.3-7.38-7.38-7.38-7.38,3.3-7.38,7.38c0,1.43.42,2.82,1.21,4.01-2.36,1.12-5.06,1.32-7.56.56-.56-.19-.75-.28-.56-2.89.09-1.03.19-2.8.28-4.76,4.03-.53,6.86-4.22,6.33-8.25-.53-4.03-4.22-6.86-8.25-6.33-4.03.53-6.86,4.22-6.33,8.25.37,2.83,2.35,5.19,5.07,6.05-1.06,3.2-2.27,6.35-3.64,9.43-1.33-2.11-3.66-3.38-6.16-3.36-4.07,0-7.37,3.31-7.37,7.38,0,4.07,3.3,7.37,7.37,7.37.31.02.63-.02.93-.09-.84,1.87-1.68,3.83-2.71,6.07-1.3-2.33-3.77-3.77-6.44-3.74-4.07,0-7.37,3.31-7.37,7.38,0,4.07,3.3,7.37,7.37,7.37.38.02.75-.02,1.12-.09-.28.47-.56,1.03-.84,1.49l-.28.56c-1.31,2.43-4.76,8.78-8.5,8.96-1.59.09-5.41-1.4-9.52-3.74,4.04-.02,7.3-3.3,7.28-7.34,0-.01,0-.02,0-.04,0-4.07-3.3-7.38-7.37-7.38-4.07,0-7.38,3.3-7.38,7.37h0c-.02,1.04.21,2.06.65,2.99-1.78-1.31-3.38-2.85-4.76-4.57-.47-.65-1.03-1.31-1.4-1.77-.25-.26-.47-.54-.65-.84-2.25-2.86-2.62-6.77-.93-9.99.28-.65.65-1.21.93-1.77,1.35,3.83,5.55,5.84,9.38,4.49,3.83-1.35,5.84-5.55,4.49-9.38-1.04-2.95-3.83-4.92-6.96-4.91-1.06.02-2.11.24-3.08.65,1.21-3.27,2.71-6.35,5.32-8.31,1.12-.84,2.99-1.96,4.85-3.08-.27.75-.39,1.54-.37,2.33,0,4.07,3.3,7.38,7.37,7.38,4.07,0,7.38-3.3,7.38-7.37h0c.03-3.39-2.3-6.35-5.6-7.11,4.53-2.15,8.87-4.68,12.98-7.56.49-.38.96-.78,1.4-1.21,1.74-1.72,3.81-3.08,6.07-4.01,2.81,2.56,7.16,2.36,9.72-.45,2.56-2.81,2.36-7.16-.45-9.72-2.81-2.56-7.16-2.36-9.72.45-1.93,2.11-2.35,5.2-1.05,7.75-2.05.47-4.39,1.59-7.66,4.39-1.66,1.34-3.44,2.53-5.32,3.55-.23.16-.48.29-.75.37-.56.28-1.03.28-1.31,0-.31-.4-.41-.92-.28-1.4.11-.49.17-.99.19-1.49.4.08.81.11,1.21.09,4.07,0,7.38-3.3,7.38-7.38s-3.3-7.38-7.38-7.38-7.38,3.3-7.38,7.38c-.04,2.7,1.44,5.19,3.83,6.44,0,.09-.09.28-.09.37-.65,2.43-1.03,4.11-3.08,5.23-.47.28-.93.56-1.49.93-.57.41-1.16.78-1.77,1.12-.37.21-.82.25-1.21.09-.38-.15-.69-.46-.84-.84-.56-1.59-1.31-3.55-1.96-5.42,3.74-1.41,5.63-5.6,4.21-9.34-1.41-3.74-5.6-5.63-9.34-4.21s-5.63,5.6-4.21,9.34c1.08,2.86,3.85,4.74,6.91,4.68h.47c1.03,4.11,2.05,8.96,1.4,9.52-.71.5-1.46.94-2.24,1.31-2.15,1.12-5.14,2.61-7.28,5.14-2.61,2.99-3.74,6.82-4.39,8.87-.19.47-.28.84-.37,1.12-.65,1.87-2.71,5.7-3.83,6.07-.28-.09-1.03-1.12-2.43-9.15.79-1.19,1.21-2.59,1.21-4.01-.02-1.27-.34-2.52-.93-3.64.95.4,1.96.63,2.99.65,4.07,0,7.38-3.3,7.38-7.37,0-4.07-3.3-7.38-7.37-7.38h0c-3.35,0-6.27,2.26-7.1,5.51-1.63-1.52-3.35-2.96-5.14-4.3.08-.4.11-.81.09-1.21,0-4.07-3.3-7.38-7.38-7.38s-7.38,3.3-7.38,7.38,3.3,7.38,7.38,7.38h0c2.84,0,5.42-1.63,6.63-4.2,1.57,1.58,2.86,3.41,3.83,5.42.25.6.44,1.23.56,1.87-.28,0-.65-.09-.93-.09-4.07,0-7.37,3.31-7.37,7.38,0,4.07,3.3,7.37,7.37,7.37.82-.03,1.64-.15,2.43-.37.25,2.23.34,4.48.28,6.72-1.12.37-10.08-1.12-18.86-2.8-.1-4.07-3.48-7.29-7.54-7.19-3.39.08-6.29,2.47-7.02,5.79-2.38-3.31-6.98-4.06-10.29-1.68-3.31,2.38-4.06,6.98-1.68,10.29s6.98,4.06,10.29,1.68c1.48-1.06,2.51-2.63,2.9-4.4,2.38,3.31,6.99,4.07,10.31,1.7,1.1-.79,1.96-1.86,2.49-3.1,2.81.94,5.73,1.5,8.68,1.68,2.71.28,11.48,2.33,11.76,4.11.44,1.97,1.04,3.91,1.77,5.79l.09.28c.65,1.77,1.4,4.86.93,5.7-1.13,1.16-2.6,1.95-4.2,2.24-.62,0-1.25.02-1.87.09,1.55-1.37,2.43-3.34,2.43-5.42-.02-4.07-3.33-7.36-7.4-7.35-4.07.02-7.36,3.33-7.35,7.4,0,2.64,1.43,5.08,3.73,6.39-.37,0-.93.09-1.4.09-1.29-.98-2.86-1.5-4.48-1.49-1.8-.02-3.54.65-4.86,1.87-1.68,0-3.27.09-4.67.09-.83-3.25-3.75-5.51-7.1-5.51-1.75-.03-3.45.6-4.76,1.77.08-.34.11-.68.09-1.03,0-4.07-3.3-7.38-7.38-7.38s-7.38,3.3-7.38,7.38,3.3,7.38,7.38,7.38h0c1.75.03,3.45-.6,4.76-1.77-.08.34-.11.68-.09,1.03,0,4.07,3.31,7.37,7.38,7.38,3.74.01,6.89-2.81,7.28-6.54.56.09,1.12.19,1.59.28.28,0,.47.09.75.09-.26.72-.39,1.48-.37,2.24,0,4.07,3.31,7.37,7.38,7.37,4.07,0,7.37-3.3,7.37-7.37.03-1-.2-2-.65-2.89.37-.09.75-.09,1.21-.19,6.35-.65,18.02-1.87,20.63.19l.09.09c12.32,7.94,16.15,11.3,16.9,14.19,1.12,4.01,3.64,20.63.65,35.01-.93,4.57-4.67,7.38-7.47,10.36-.33.36-.31.92.05,1.26.16.15.38.24.6.24h31.28c.49,0,.89-.4.89-.89,0-.27-.12-.53-.33-.7-3.74-3.27-8.4-10.18-8.12-26.7,0-1.87,0-4.01-.09-5.7v-2.24h0c-.12-2.34.2-4.68.93-6.91,1.96-5.23,12.23-16.81,18.95-21.29.37-.28.84-.56,1.31-.84.43-.3.9-.52,1.4-.65,3.36-1.59,5.7-2.43,9.8-1.68-2.43,1.27-3.95,3.79-3.92,6.54,0,4.07,3.3,7.38,7.37,7.38,4.07,0,7.38-3.3,7.38-7.37h0c0-.64-.09-1.27-.28-1.87,2.8,1.59,5.51,2.99,8.03,3.17,1.03.09,2.24.09,3.46.09.27,3.83,3.45,6.8,7.28,6.82,3.96.02,7.2-3.14,7.28-7.1,3.02,2.7,7.66,2.44,10.36-.58,1.21-1.35,1.88-3.11,1.87-4.93,0-4.11-2.42-7.38-6.53-7.38Z"/>
    </g>
  </g>
</svg>