<?xml version="1.0" encoding="UTF-8"?>
<svg id="Layer_2" data-name="Layer 2" xmlns="http://www.w3.org/2000/svg" viewBox="0 0 1387.48 686.88">
  <defs>
    <style>
      .cls-1 {
        fill: #fff;
      }
    </style>
  </defs>
  <g id="Option_2" data-name="Option 2">
    <g>
      <g>
        <g>
          <g>
            <path class="cls-1" d="M183.15,686.15h-11.03v-52.88h30.31v9.19h-19.28v13.64h17.94v9.15h-17.94v20.9Z"/>
            <path class="cls-1" d="M290.25,659.64c0,8.75-2.17,15.48-6.51,20.18-4.34,4.7-10.56,7.05-18.66,7.05s-14.32-2.35-18.66-7.05c-4.34-4.7-6.51-11.45-6.51-20.25s2.18-15.52,6.53-20.16c4.35-4.64,10.59-6.96,18.72-6.96s14.34,2.34,18.64,7.02c4.3,4.68,6.46,11.4,6.46,20.18ZM251.66,659.64c0,5.91,1.12,10.36,3.36,13.35,2.24,2.99,5.59,4.48,10.05,4.48,8.95,0,13.42-5.94,13.42-17.83s-4.45-17.87-13.35-17.87c-4.46,0-7.82,1.5-10.09,4.5-2.27,3-3.4,7.46-3.4,13.36Z"/>
            <path class="cls-1" d="M342.21,665.86v20.29h-11.21v-52.88h15.41c7.18,0,12.5,1.31,15.95,3.92,3.45,2.62,5.17,6.59,5.17,11.92,0,3.11-.86,5.88-2.57,8.3-1.71,2.42-4.14,4.32-7.27,5.7l15.55,23.04h-12.44l-12.62-20.29h-5.97ZM342.21,656.75h3.62c3.54,0,6.16-.59,7.85-1.77,1.69-1.18,2.53-3.04,2.53-5.57s-.86-4.29-2.59-5.35c-1.72-1.06-4.39-1.59-8.01-1.59h-3.4v14.29Z"/>
            <path class="cls-1" d="M433.29,686.15l-12.73-41.48h-.33c.46,8.44.69,14.07.69,16.89v24.59h-10.02v-52.88h15.26l12.51,40.44h.22l13.27-40.44h15.26v52.88h-10.45v-25.03c0-1.18.02-2.54.05-4.09.04-1.54.2-5.64.49-12.3h-.33l-13.64,41.41h-10.27Z"/>
            <path class="cls-1" d="M553.55,633.28v34.21c0,3.91-.87,7.33-2.62,10.27-1.75,2.94-4.27,5.2-7.58,6.76-3.3,1.57-7.21,2.35-11.72,2.35-6.8,0-12.08-1.74-15.84-5.23-3.76-3.48-5.64-8.25-5.64-14.3v-34.07h11.18v32.37c0,4.07.82,7.06,2.46,8.97,1.64,1.9,4.35,2.86,8.14,2.86s6.32-.96,7.97-2.88c1.65-1.92,2.48-4.92,2.48-9.02v-32.3h11.18Z"/>
            <path class="cls-1" d="M596.22,686.15v-52.88h11.21v43.62h21.45v9.26h-32.66Z"/>
            <path class="cls-1" d="M703.66,686.15l-3.83-12.59h-19.28l-3.83,12.59h-12.08l18.66-53.09h13.71l18.73,53.09h-12.08ZM697.14,664.16c-3.54-11.4-5.54-17.85-5.99-19.35-.45-1.49-.77-2.68-.96-3.54-.8,3.09-3.07,10.72-6.84,22.89h13.78Z"/>
          </g>
          <path class="cls-1" d="M815.94,686.15h-11.18v-30.6c0-.63,0-1.38.02-2.26.01-.88.04-1.8.07-2.75.04-.95.07-1.91.11-2.88.04-.96.07-1.84.09-2.64-.12.14-.33.36-.62.65-.29.29-.61.61-.98.96-.36.35-.74.71-1.12,1.07-.39.36-.76.69-1.12.98l-6.08,4.88-5.43-6.73,17.03-13.56h9.19v52.88Z"/>
          <path class="cls-1" d="M950.34,686.15h-11.21v-43.55h-14.36v-9.33h39.93v9.33h-14.36v43.55Z"/>
          <path class="cls-1" d="M1033.48,686.15h-30.45v-52.88h30.45v9.19h-19.24v11.61h17.9v9.19h-17.9v13.63h19.24v9.26Z"/>
          <path class="cls-1" d="M1109.08,686.15l-3.83-12.59h-19.28l-3.83,12.59h-12.08l18.66-53.09h13.71l18.73,53.09h-12.08ZM1102.57,664.16c-3.54-11.4-5.54-17.85-5.99-19.35-.45-1.49-.77-2.68-.96-3.54-.8,3.09-3.07,10.72-6.84,22.89h13.78Z"/>
          <path class="cls-1" d="M1181.19,686.15l-12.73-41.48h-.33c.46,8.44.69,14.07.69,16.89v24.59h-10.02v-52.88h15.26l12.51,40.44h.22l13.27-40.44h15.26v52.88h-10.45v-25.03c0-1.18.02-2.54.05-4.09.04-1.54.2-5.64.49-12.3h-.33l-13.64,41.41h-10.27Z"/>
          <path class="cls-1" d="M843.7,664.62c-2.32,0-4.44-.4-6.38-1.22-1.94-.81-3.62-1.93-5.04-3.37-1.42-1.43-2.52-3.11-3.3-5.04-.78-1.93-1.17-4.02-1.17-6.28s.41-4.4,1.22-6.34c.81-1.94,1.94-3.62,3.39-5.04,1.45-1.42,3.13-2.53,5.06-3.32,1.93-.8,4-1.19,6.23-1.19s4.35.41,6.28,1.24c1.93.82,3.61,1.97,5.06,3.43,1.45,1.46,2.57,3.16,3.37,5.08.8,1.93,1.19,3.97,1.19,6.15s-.41,4.35-1.22,6.28c-.81,1.93-1.93,3.61-3.37,5.04-1.43,1.43-3.11,2.56-5.04,3.37-1.93.81-4.02,1.22-6.28,1.22ZM843.7,662.92c2,0,3.85-.36,5.56-1.09,1.71-.72,3.2-1.74,4.47-3.04,1.27-1.3,2.27-2.82,3-4.54.72-1.72,1.09-3.57,1.09-5.54s-.35-3.76-1.04-5.47c-.7-1.71-1.68-3.21-2.95-4.52-1.28-1.3-2.77-2.33-4.5-3.08-1.72-.75-3.6-1.13-5.62-1.13s-3.9.36-5.62,1.06c-1.72.71-3.22,1.71-4.49,3-1.27,1.29-2.27,2.79-2.98,4.52-.71,1.72-1.06,3.6-1.06,5.63s.34,3.76,1.02,5.47c.68,1.71,1.66,3.22,2.93,4.54,1.27,1.32,2.77,2.35,4.49,3.08,1.72.74,3.63,1.11,5.71,1.11ZM838.51,657.62v-17.71h5.08c1.94,0,3.44.42,4.49,1.25,1.05.83,1.58,2.11,1.58,3.83,0,1.31-.34,2.36-1.02,3.16-.68.79-1.5,1.35-2.46,1.68l4.71,7.79h-2.42l-4.3-7.3h-3.57v7.3h-2.09ZM840.56,648.6h2.87c1.23,0,2.23-.3,3.01-.9.78-.6,1.17-1.48,1.17-2.62s-.37-2.06-1.11-2.58c-.74-.52-1.75-.78-3.03-.78h-2.91v6.89Z"/>
        </g>
        <g>
          <path class="cls-1" d="M22.42,572.33l-12.75-41.54h-.32c.46,8.45.68,14.09.68,16.91v24.63H0v-52.94h15.28l12.53,40.49h.21l13.29-40.49h15.29v52.94h-10.46v-25.06c0-1.18.01-2.55.06-4.09.03-1.55.19-5.65.48-12.31h-.32l-13.65,41.46h-10.28Z"/>
          <path class="cls-1" d="M116.65,573.05c-12.6,0-18.9-6.92-18.9-20.75,0-6.88,1.71-12.14,5.14-15.77,3.43-3.64,8.34-5.45,14.74-5.45,4.68,0,8.88.92,12.6,2.75l-3.26,8.55c-1.74-.7-3.35-1.27-4.86-1.72-1.49-.45-2.99-.67-4.48-.67-5.75,0-8.62,4.08-8.62,12.24s2.87,11.88,8.62,11.88c2.12,0,4.09-.28,5.9-.85,1.81-.57,3.61-1.46,5.43-2.66v9.45c-1.79,1.14-3.59,1.92-5.41,2.36s-4.12.65-6.9.65Z"/>
          <path class="cls-1" d="M170.36,572.33v-52.94h11.23v43.67h21.47v9.27h-32.7Z"/>
          <path class="cls-1" d="M275.82,572.33l-3.84-12.6h-19.3l-3.84,12.6h-12.1l18.69-53.16h13.73l18.76,53.16h-12.09ZM269.3,550.31c-3.55-11.42-5.55-17.88-5.99-19.38-.45-1.49-.77-2.68-.96-3.55-.8,3.09-3.08,10.73-6.84,22.92h13.8Z"/>
          <path class="cls-1" d="M336.96,552.01v20.31h-11.23v-52.94h15.42c7.2,0,12.52,1.31,15.98,3.93,3.45,2.62,5.17,6.6,5.17,11.93,0,3.11-.86,5.88-2.57,8.31-1.72,2.42-4.14,4.32-7.28,5.7l15.58,23.07h-12.46l-12.64-20.31h-5.97ZM336.96,542.89h3.61c3.55,0,6.17-.59,7.86-1.78,1.68-1.18,2.53-3.04,2.53-5.58s-.86-4.3-2.59-5.36c-1.72-1.06-4.4-1.59-8.02-1.59h-3.4v14.31Z"/>
          <path class="cls-1" d="M436.33,572.33h-30.49v-52.94h30.49v9.2h-19.27v11.62h17.93v9.2h-17.93v13.65h19.27v9.27Z"/>
          <path class="cls-1" d="M525.49,572.33h-14.26l-23.03-40.05h-.33c.46,7.07.69,12.12.69,15.14v24.92h-10.03v-52.94h14.15l23,39.65h.25c-.36-6.88-.54-11.74-.54-14.59v-25.06h10.1v52.94Z"/>
          <path class="cls-1" d="M642.8,572.33l-12.75-41.54h-.32c.46,8.45.68,14.09.68,16.91v24.63h-10.03v-52.94h15.28l12.53,40.49h.21l13.29-40.49h15.29v52.94h-10.46v-25.06c0-1.18.01-2.55.06-4.09.03-1.55.19-5.65.48-12.31h-.32l-13.65,41.46h-10.28Z"/>
          <path class="cls-1" d="M753.88,572.33l-3.84-12.6h-19.3l-3.84,12.6h-12.09l18.69-53.16h13.73l18.76,53.16h-12.09ZM747.36,550.31c-3.55-11.42-5.55-17.88-5.99-19.38-.45-1.49-.77-2.68-.96-3.55-.8,3.09-3.08,10.73-6.85,22.92h13.8Z"/>
          <path class="cls-1" d="M835.04,557.62c0,4.78-1.72,8.55-5.16,11.3-3.44,2.75-8.23,4.13-14.36,4.13-5.65,0-10.65-1.06-15-3.19v-10.43c3.57,1.59,6.6,2.72,9.08,3.37,2.47.66,4.73.98,6.79.98,2.46,0,4.35-.47,5.67-1.41,1.31-.94,1.97-2.34,1.97-4.2,0-1.03-.29-1.96-.87-2.77-.58-.81-1.43-1.59-2.55-2.33-1.12-.75-3.41-1.94-6.86-3.59-3.24-1.52-5.66-2.98-7.28-4.38-1.62-1.4-2.91-3.03-3.88-4.89-.97-1.86-1.45-4.03-1.45-6.52,0-4.68,1.59-8.36,4.76-11.04,3.17-2.68,7.56-4.02,13.16-4.02,2.76,0,5.38.33,7.88.98,2.5.65,5.12,1.57,7.84,2.75l-3.62,8.73c-2.83-1.16-5.16-1.97-7.01-2.42-1.85-.46-3.66-.69-5.45-.69-2.12,0-3.75.49-4.89,1.48-1.14.99-1.7,2.28-1.7,3.88,0,.99.23,1.85.69,2.59.46.74,1.19,1.45,2.19,2.14,1,.69,3.37,1.92,7.12,3.71,4.95,2.37,8.33,4.74,10.17,7.12,1.83,2.38,2.75,5.29,2.75,8.75Z"/>
          <path class="cls-1" d="M896.21,572.33h-11.23v-43.6h-14.38v-9.34h39.98v9.34h-14.38v43.6Z"/>
          <path class="cls-1" d="M980.38,572.33h-30.5v-52.94h30.5v9.2h-19.27v11.62h17.93v9.2h-17.93v13.65h19.27v9.27Z"/>
          <path class="cls-1" d="M1033.8,552.01v20.31h-11.23v-52.94h15.43c7.19,0,12.52,1.31,15.97,3.93,3.45,2.62,5.18,6.6,5.18,11.93,0,3.11-.86,5.88-2.57,8.31-1.71,2.42-4.14,4.32-7.28,5.7l15.57,23.07h-12.46l-12.64-20.31h-5.97ZM1033.8,542.89h3.62c3.55,0,6.17-.59,7.86-1.78,1.69-1.18,2.54-3.04,2.54-5.58s-.87-4.3-2.59-5.36c-1.72-1.06-4.4-1.59-8.02-1.59h-3.41v14.31Z"/>
          <path class="cls-1" d="M1125.17,527.97c-4.22,0-7.49,1.59-9.81,4.76-2.32,3.18-3.48,7.6-3.48,13.27,0,11.81,4.43,17.71,13.29,17.71,3.72,0,8.22-.93,13.51-2.79v9.42c-4.35,1.81-9.19,2.72-14.56,2.72-7.7,0-13.59-2.33-17.67-7.01-4.08-4.67-6.11-11.37-6.11-20.11,0-5.5.99-10.33,3-14.47,2.01-4.14,4.88-7.32,8.64-9.53,3.76-2.21,8.15-3.31,13.2-3.31s10.31,1.25,15.51,3.73l-3.63,9.13c-1.97-.94-3.97-1.76-5.97-2.46-2-.7-3.97-1.05-5.9-1.05Z"/>
          <path class="cls-1" d="M1213.5,572.33l-3.84-12.6h-19.3l-3.84,12.6h-12.09l18.69-53.16h13.73l18.76,53.16h-12.09ZM1206.98,550.31c-3.55-11.42-5.55-17.88-5.99-19.38-.45-1.49-.77-2.68-.96-3.55-.8,3.09-3.08,10.73-6.85,22.92h13.8Z"/>
          <path class="cls-1" d="M1274.63,552.01v20.31h-11.22v-52.94h15.43c7.19,0,12.51,1.31,15.97,3.93,3.45,2.62,5.18,6.6,5.18,11.93,0,3.11-.86,5.88-2.57,8.31-1.72,2.42-4.15,4.32-7.28,5.7l15.57,23.07h-12.46l-12.64-20.31h-5.98ZM1274.63,542.89h3.63c3.55,0,6.17-.59,7.86-1.78,1.69-1.18,2.53-3.04,2.53-5.58s-.86-4.3-2.59-5.36c-1.73-1.06-4.4-1.59-8.02-1.59h-3.41v14.31Z"/>
          <path class="cls-1" d="M1387.45,545.35c0,8.72-2.48,15.39-7.44,20.02-4.96,4.64-12.13,6.95-21.49,6.95h-14.99v-52.94h16.62c8.64,0,15.35,2.28,20.13,6.85,4.78,4.56,7.17,10.93,7.17,19.12ZM1375.79,545.64c0-11.37-5.03-17.06-15.07-17.06h-5.98v34.48h4.82c10.81,0,16.22-5.8,16.22-17.42Z"/>
        </g>
      </g>
      <g>
        <path class="cls-1" d="M505.9,20.6c-64.56,0-155.59,19.3-254.2,55.38C169.45,106.05,88.04,144.37,0,199.94c51.51-21.06,153.12-44.83,236.9-44.83,113.11,0,193.71,43.32,74.73,195.16C662.43,120.56,652.74,20.6,505.9,20.6"/>
        <path class="cls-1" d="M1071.01,336.17c1.45,1.26,2.98,2.48,4.48,3.71-29.39,19.58-64.69,30.99-102.66,30.99-102.42,0-185.44-83.02-185.44-185.44S870.42,0,972.84,0c37.96,0,73.26,11.42,102.65,30.99-1.5,1.23-3.02,2.44-4.48,3.71-43.69,38.01-68.74,92.95-68.74,150.73s25.05,112.73,68.74,150.73ZM1202.04,0c-37.96,0-73.26,11.41-102.65,30.99,1.5,1.23,3.03,2.44,4.48,3.71,43.69,38.01,68.74,92.95,68.74,150.73s-25.05,112.72-68.74,150.73c-1.45,1.26-2.98,2.48-4.49,3.71,29.39,19.57,64.69,30.99,102.65,30.99,102.41,0,185.44-83.02,185.44-185.43S1304.46,0,1202.04,0ZM1087.44,39.72c-2.39,1.88-4.73,3.82-7.02,5.81-39.08,34-63.81,84.05-63.81,139.91s24.73,105.91,63.81,139.91c2.29,1.99,4.63,3.93,7.02,5.81,2.39-1.88,4.73-3.82,7.02-5.81,39.08-34,63.81-84.05,63.81-139.91s-24.73-105.91-63.81-139.91c-2.29-1.99-4.63-3.93-7.02-5.81"/>
      </g>
    </g>
  </g>
</svg>