<?xml version="1.0" encoding="UTF-8"?>
<svg id="Layer_2" data-name="Layer 2" xmlns="http://www.w3.org/2000/svg" viewBox="0 0 298 80.41">
  <defs>
    <style>
      .cls-1 {
        fill: #fff;
      }
    </style>
  </defs>
  <g id="Layer_1-2" data-name="Layer 1">
    <path class="cls-1" d="M51.24,2.94c-.74.89-1.15,1.89-1.15,3.63v47.72h-.26S23.71,7.72,22.44,5.57c-.89-1.53-1.89-2.58-3.21-3.37-1.31-.73-2.68-1.21-5.31-1.21H5.31c-2,0-3.26.68-4.15,1.74-.74.89-1.16,1.89-1.16,3.62v67.64c0,1.74.42,2.73,1.16,3.63.89,1.05,2.15,1.73,4.15,1.73h4.89c2,0,3.26-.68,4.15-1.73.73-.89,1.15-1.89,1.15-3.63V25.12h.26s27.12,48.04,28.22,49.82c1.52,2.52,4.1,4.41,7.78,4.41h8.36c2,0,3.26-.68,4.15-1.73.73-.89,1.15-1.89,1.15-3.63V12.98h109.79c1.11,0,1.94-.31,2.58-.84.68-.63,1-1.47,1-2.73v-4.63c0-1.26-.32-2.1-1-2.73-.63-.53-1.47-.84-2.58-.84H55.4c-2,0-3.26.69-4.15,1.74ZM99.18,21.02c-18.24,0-28.49,14.25-28.49,29.28,0,16.03,10.99,30.12,28.59,30.12,8.78,0,17.4-3.31,22.33-9.15,2.16-2.52,3.89-6.04,3.89-8.2,0-.74-.16-1.37-.58-1.84-.42-.53-1.05-.84-2.16-.84h-8.46c-1.68,0-2.84.63-3.68,1.89-2.47,3.63-6.05,5.52-11.3,5.52-7.88,0-12.98-5.99-13.35-12.56h36.58c1.63,0,2.78-.37,3.57-1.15.89-.84,1.32-2.05,1.32-4.31,0-6.88-2.16-14.03-6.68-19.5-4.62-5.52-11.67-9.25-21.6-9.25ZM155.57,21.02c-14.4,0-23.86,6.83-23.86,17.77,0,3.89,1.42,7.04,3.73,9.51,2.68,2.89,6.52,4.89,12.09,6.31l12.03,3.05c3.31.84,6.25,1.84,6.25,4.73,0,4.47-4.73,5.99-9.77,5.99-2.47,0-5.05-.47-7.15-1.52-1.47-.74-2.73-1.79-3.62-3.21-.79-1.21-1.05-2.1-2.26-2.79-.74-.42-1.63-.47-2.84-.47h-6.52c-1.42,0-2.1.42-2.57,1-.47.58-.63,1.42-.63,2.26,0,2.1.74,4.73,2.47,7.09,3.99,5.36,12.35,9.67,23.02,9.67s25.07-4.37,25.07-18.45c0-3.62-1.05-6.73-3-9.25-2.47-3.21-5.99-5.42-11.98-6.94l-11.93-3.05c-4.94-1.26-7.26-2.15-7.26-5.2s2.63-5.31,8.72-5.31c3.58,0,6.83.79,8.94,3,1.73,1.84,1.42,2.79,2.79,3.52.84.42,1.78.42,3.26.42h5.94c.95,0,1.63-.16,2.15-.74.42-.47.68-1.21.68-2.42,0-2.73-1.79-6.25-4.94-8.93-4.2-3.63-10.83-6.04-18.82-6.04ZM188.31,23.02h-2.94c-1.1,0-1.95.31-2.57.84-.68.63-1,1.47-1,2.73v3.63c0,1.26.32,2.1,1,2.73.63.53,1.47.84,2.57.84h2.94v26.22c0,6.73,1.84,10.93,5.25,14.3,3.16,3.1,7.26,5.04,14.4,5.04h4.47c1.11,0,1.94-.31,2.58-.84.68-.63,1.1-1.47,1.1-2.73v-4.57c0-1.26-.42-2.1-1.1-2.73-.63-.53-1.47-.84-2.58-.84h-.63c-2.84,0-4.78-.73-6.1-2-1.58-1.47-2.37-3.73-2.37-6.67v-25.17h9.57c1.1,0,1.94-.32,2.57-.84.68-.63,1-1.47,1-2.73v-3.63c0-1.26-.32-2.1-1-2.73-.63-.53-1.47-.84-2.57-.84h-9.51V5.88c0-1.37-.42-2.37-1.05-3.15-.79-.95-1.89-1.53-3.52-1.53h-5.94c-1.63,0-2.73.58-3.52,1.53-.63.79-1.05,1.78-1.05,3.15v17.14ZM220.48,74.68c0,1.37.42,2.36,1.05,3.15.79.95,1.89,1.52,3.52,1.52h6.25c1.63,0,2.73-.58,3.52-1.52.63-.79,1.05-1.79,1.05-3.15V5.89c0-1.37-.42-2.37-1.05-3.15-.79-.95-1.89-1.53-3.52-1.53h-6.25c-1.63,0-2.73.58-3.52,1.53-.63.79-1.05,1.79-1.05,3.15v68.79ZM86.09,44.04c.68-6.47,5.62-11.3,13.14-11.3s12.45,4.83,13.14,11.3h-26.28ZM292.8,12.98c1.1,0,1.94-.31,2.57-.84.68-.63,1-1.47,1-2.73v-4.89c0-1.89-.37-2.84-1-3.52-.58-.63-1.52-1-2.57-1-.84,0-1.68.1-3.1.26l-41.94,4.15c-1.21.1-1.78.47-2.21.95-.47.53-.68,1.21-.68,2.16v2.73c0,1.05.21,1.53.58,1.95.47.53,1.15.79,2.1.79h45.25ZM269.62,21.02c-18.24,0-28.49,14.25-28.49,29.28,0,16.03,10.99,30.12,28.59,30.12,8.78,0,17.4-3.31,22.34-9.15,2.16-2.52,3.89-6.04,3.89-8.2,0-.74-.16-1.37-.58-1.84-.42-.53-1.05-.84-2.15-.84h-8.46c-1.68,0-2.84.63-3.68,1.89-2.47,3.63-6.04,5.52-11.3,5.52-7.89,0-12.98-5.99-13.35-12.56h36.69c1.63,0,2.78-.37,3.57-1.15.89-.84,1.32-2.05,1.32-4.31,0-6.88-2.16-14.03-6.67-19.5-4.63-5.52-11.77-9.25-21.71-9.25ZM256.53,44.04c.68-6.47,5.62-11.3,13.14-11.3s12.46,4.83,13.14,11.3h-26.28Z"/>
  </g>
</svg>