<?xml version="1.0" encoding="UTF-8"?>
<svg id="Layer_2" data-name="Layer 2" xmlns="http://www.w3.org/2000/svg" viewBox="0 0 66.14 33.05">
  <defs>
    <style>
      .cls-1 {
        fill: #fff;
      }
    </style>
  </defs>
  <g id="Layer_2-2" data-name="Layer 2">
    <g id="uuid-1a2a5870-36a8-42e1-a200-8dea1ec73782" data-name="Layer 2-2">
      <path class="cls-1" d="M10.86,33.04c3.45,0,6.28-1.08,8.13-2.88,1.39-1.39,2.21-3.24,2.21-5.4,0-1.96-.72-3.71-2.06-5.04-1.34-1.34-3.24-2.32-5.66-2.78l-3.96-.77c-1.65-.31-2.57-1.13-2.57-2.27,0-1.49,1.44-2.52,3.76-2.52,1.44,0,2.68.46,3.5,1.29.52.57.88,1.29.98,2.11l5.71-1.29c-.15-1.65-.93-3.09-2.11-4.27-1.85-1.85-4.73-3.04-8.13-3.04-3.14,0-5.77,1.03-7.57,2.68-1.54,1.44-2.42,3.4-2.42,5.56,0,1.9.62,3.5,1.85,4.73,1.23,1.23,3.04,2.16,5.4,2.73l3.91.93c1.96.46,2.83,1.18,2.83,2.47,0,1.6-1.44,2.52-3.81,2.52-1.7,0-3.09-.57-3.96-1.49-.62-.62-.98-1.44-1.03-2.37l-5.87,1.29c.15,1.75.98,3.29,2.21,4.53,1.96,2.06,5.1,3.29,8.65,3.29ZM54.3,33.04c3.81,0,6.74-1.39,8.75-3.35,1.6-1.54,2.57-3.35,3.09-5.2l-6.02-2.01c-.26.93-.77,1.9-1.6,2.68-.98.93-2.32,1.6-4.22,1.6-1.75,0-3.4-.67-4.58-1.85-1.18-1.23-1.9-3.04-1.9-5.3s.72-4.07,1.9-5.3c1.18-1.18,2.78-1.8,4.53-1.8,1.85,0,3.14.62,4.07,1.54.77.77,1.23,1.75,1.54,2.73l6.13-2.06c-.46-1.8-1.44-3.6-2.88-5.1-2.06-2.01-5.04-3.45-9.01-3.45-3.65,0-6.95,1.39-9.32,3.76-2.37,2.42-3.81,5.77-3.81,9.68s1.49,7.26,3.91,9.68c2.37,2.37,5.71,3.76,9.42,3.76h0ZM33.51,33.04c2.68,0,4.58-.82,5.4-1.54v-5.56c-.62.46-1.85,1.03-3.45,1.03-1.13,0-1.96-.26-2.57-.82-.52-.52-.77-1.39-.77-2.57V0h-6.79v6.95h13.59v6.59h-13.59v11.69c0,2.37.72,4.27,2.01,5.61,1.44,1.44,3.55,2.21,6.18,2.21h0Z"/>
    </g>
  </g>
</svg>