<?xml version="1.0" encoding="UTF-8"?>
<svg id="Layer_2" data-name="Layer 2" xmlns="http://www.w3.org/2000/svg" viewBox="0 0 1394.65 411.02">
  <defs>
    <style>
      .cls-1 {
        fill: #fff;
      }
    </style>
  </defs>
  <g id="Artwork">
    <g>
      <path class="cls-1" d="M57.75,249.41c-8.41,20.07-14.44,41.9-9.34,63.38,7.22,30.39,34.55,50.23,65.62,57.13-8.57-11.22-12.4-31.02-15.33-43.65-7.7-33.18-20.12-55.22-40.95-76.86Z"/>
      <path class="cls-1" d="M281.41,255.74c-4.8-23.06-19.9-46.13-41.14-69.42-44.81-47.43-116.92-80.37-153.02-135.46C42.87,73.29-6.49,117.35.7,164.67c4.25,25.9,25.47,44.46,44.95,61.07,34.13,29.09,52.1,53.4,62.12,96.57,3.63,15.65,8.64,42.3,22.32,50,0,23.55,0,38.72,0,38.72,51.76-5.28,108.4-30.57,136.76-76.34,14.1-23.03,20.13-52.19,14.56-78.94ZM130.09,295.86c-8.59-2.61-14.36-10.33-17.34-18.9-2.83-8.12-3.63-16.86-5.71-25.22-2.61-10.46-9-18.53-16.87-25.23-9.3-7.91-20.32-13.94-26.91-24.85-3.35-5.55-5.21-12.35-3.94-18.78,1.38-6.95,6.25-12.7,11.97-16.51,11.02-7.33,24.28-7.93,32.01-20.2,4.28-6.79,6.25-14.64,9.34-22.02,3.35-8,9.33-14.16,17.45-16.02v187.73Z"/>
      <path class="cls-1" d="M130.09,84.37s0-84.17,0-84.17c-.76-.26-1.97-.19-2.8-.18-14.26.76-32.17,6.9-35.71,22.52-2.69,17.58,9.47,31.85,20.8,44,4.58,4.9,15.76,15.95,17.72,17.82Z"/>
      <path class="cls-1" d="M243.68,175.92c6.34-21.63,8.06-44.05.99-65.9-13.54-41.85-59.81-75.74-104.54-74.06v57.1c33.37,27.8,69.18,47.38,103.55,82.87Z"/>
      <path class="cls-1" d="M243.68,175.92c-.07.23.07-.23,0,0h0Z"/>
    </g>
    <path class="cls-1" d="M916.9,167.66c-8.96-3.39-18.41-5.31-27.99-5.69-10.65,0-18.99,2.79-18.99,12.49,0,22.92,58.98,8.81,58.98,55.97,0,31.92-25.89,44.07-55.09,44.07-13.25-.02-26.43-1.98-39.11-5.8l2.31-27.99c11.45,3.77,23.36,5.96,35.4,6.5,11.31,0,20.57-3.67,20.57-13.41,0-24.53-58.95-8.81-58.95-55.75,0-29.38,24.72-41.39,52.01-41.39,12.58-.15,25.09,1.81,37.02,5.8l-6.17,25.19ZM809.11,167.66c-8.95-3.37-18.39-5.29-27.95-5.69-10.65,0-19.21,2.79-19.21,12.49,0,22.92,59.2,8.81,59.2,55.97,0,31.92-26.11,44.07-55.09,44.07-13.39-.06-26.71-2.01-39.55-5.8l2.53-27.99c11.53,3.76,23.51,5.95,35.63,6.5,11.02,0,20.35-3.67,20.35-13.41,0-24.53-59.2-8.81-59.2-55.75,0-29.38,24.97-41.39,52.01-41.39,12.73-.12,25.4,1.84,37.5,5.8l-6.21,25.19ZM1353.95,136.44c25.71,0,40.69,13.88,40.69,44.07v91.12h-34.23v-83.96c0-13.63-3.93-22.66-18.36-22.66s-27.29,12.71-27.29,35.59v71.25h-33.49v-84.18c0-12.71-4.19-22.66-18.77-22.66s-27.03,14.1-27.03,36.98v69.78h-34.67v-132.55c22.62-2.79,31.18,6.46,32.14,21.26,8.16-15.18,24.16-24.48,41.39-24.06,23.8,0,33.27,13.18,36.73,25.71,5.77-13.15,20.57-25.71,43.01-25.71h-.11ZM656.73,139.23c-7.35,39.3-26.37,101.29-38.38,132.51h-36.07l-25.45-88.14h-.44l-25.45,88.14h-35.85c-11.57-30.78-32.39-94.83-38.38-132.51h33.97l22.44,91.12h.48l26.81-91.12h34.01l26.11,90.42h.48l22.66-90.42h33.05ZM436.37,167.66c-8.96-3.39-18.41-5.31-27.99-5.69-10.65,0-18.73,2.79-18.73,12.49,0,22.92,58.76,8.81,58.76,55.97,0,31.92-25.89,44.07-55.09,44.07-13.24-.02-26.4-1.98-39.08-5.8l2.06-27.99c11.53,3.76,23.51,5.95,35.63,6.5,11.31,0,20.57-3.67,20.57-13.41,0-24.53-58.76-8.81-58.76-55.75,0-29.38,24.72-41.39,52.01-41.39,12.58-.13,25.09,1.83,37.02,5.8l-6.39,25.19ZM1116.22,274.5c-37.68,0-64.05-20.57-64.05-66.81,0-41.39,27.77-71.25,67.98-71.25,37.46,0,61.74,21.08,61.74,66.11s-26.33,71.91-65.67,71.91v.04ZM1117.61,165.64c-15.24,0-29.82,11.31-29.82,40.4,0,25.19,9.48,39.3,29.38,39.3,16.89,0,29.86-13.63,29.86-40.4s-9.26-39.3-29.38-39.3h-.04ZM672.23,271.78h34.01v-132.55c-15.98-1.62-34.01,2.79-34.01,27.77v104.78ZM690.81,122.59c11.76.41,21.62-8.8,22.02-20.55,0-.16,0-.33.01-.49-.49-11.82-10.47-21-22.28-20.51-11.13.46-20.05,9.38-20.51,20.51.12,11.46,9.29,20.77,20.75,21.04ZM1008.09,274.06c-39.33,0-65.01-19.65-65.01-66.59,0-39.81,22.04-70.55,70.3-70.55,11.03.02,21.98,1.89,32.39,5.55l-7.35,27.77c-7.66-3.02-15.79-4.66-24.02-4.85-24.75,0-34.93,16.16-34.93,40.4s9.26,39.33,33.53,39.33c9.24-.08,18.36-2.05,26.81-5.8l3.93,27.29c-6.61,4.22-20.71,7.46-35.52,7.46h-.15Z"/>
  </g>
</svg>