<?xml version="1.0" encoding="UTF-8"?>
<svg id="Layer_2" data-name="Layer 2" xmlns="http://www.w3.org/2000/svg" viewBox="0 0 541.43 98.2">
  <defs>
    <style>
      .cls-1 {
        fill: #fffffe;
        fill-rule: evenodd;
      }
    </style>
  </defs>
  <g id="Layer_1-2" data-name="Layer 1">
    <g id="Symbols">
      <g id="atom-_-united_star_v1_4p_v_rev_r" data-name="atom-/-united_star_v1_4p_v_rev_r">
        <g id="Group">
          <path id="united-_r_" data-name="united-(r)" class="cls-1" d="M537.42,89.64c2.24,0,4.02,1.78,4.02,4.01s-1.78,4.01-4.02,4.01-4.02-1.78-4.02-4.01,1.77-4.01,4.02-4.01ZM537.42,97.04c1.83,0,3.4-1.5,3.4-3.39s-1.57-3.39-3.4-3.39-3.41,1.49-3.41,3.39,1.57,3.39,3.41,3.39ZM539.38,92.58c0,.87-.6,1.18-1.38,1.2l1.32,2.02h-.74l-1.31-2.02h-.74v2.02h-.61v-4.38h1.9c.8,0,1.56.21,1.56,1.16ZM537.28,93.18c.53,0,1.49.1,1.49-.6,0-.45-.59-.53-1.07-.53h-1.17v1.13h.74ZM511.98,98.2h-6.38c1.96-3.65,4.12-8.18,5.57-12.04,0,0,0,0,0,0,.05.12.77,2.03,1.3,4.01,1.12-3.94,1.91-8.04,2.35-12.26h0c-.14-.55-.43-1.44-.6-1.97,0,0,.71-3.58.99-7.67.38,2.8.58,5.65.58,8.53,0,4.99-.59,9.89-1.73,14.62-.59,2.33-1.3,4.62-2.09,6.77ZM498.6,98.2c1.27-1.81,2.42-3.53,3.59-5.51-.88-1.33-4.88-6.01-4.88-6.01,2.2-3.6,4.18-7.5,5.75-11.37,0,0,2.68,2.96,4.77,6.01,2.06-4.93,3.02-10.07,3.02-10.07-1.41-2.36-4.57-6.01-4.57-6.01.67-3.11,1.09-6.32,1.15-9.54,1.58,1.89,3.71,4.87,3.71,4.87,0,0,0,0,0-.02-.4-5.85-3.42-11.16-4.09-12.28-.02-.11-.04-.23-.07-.37-.39-2.03-1.11-4.29-1.48-5.41,3.39,5.01,5.57,10.63,5.57,10.63,1.4,3.62,2.23,8.19,2.23,13.17,0,2.64-.53,16.39-11.03,31.9h-3.69ZM485.45,98.2h-15.2c-.61-.68-2.1-2.33-2.27-2.51,3.49-3.22,6.79-6.72,9.79-10.44l7.39,7.36h0c2.9-3.3,5.58-6.82,7.95-10.52,0,0-3.88-3.72-8.01-7.32,3.32-5.36,5.37-10.7,5.37-10.7.32.23,4.34,3.22,8.47,7.07,1.99-4.37,3.23-9.92,3.23-9.92-4.3-3.92-8.71-6.71-8.71-6.71.66-2.96,1.08-6.01,1.16-9.02,0,0,4.67,2.77,8.71,6.33.04-2.63-.19-5.26-.75-7.83-4.01-3.47-8.46-5.79-8.46-5.79,0,0-.43-2.91-1.85-6.42.01,0,.02.01.03.02.28.14,2.4,1.22,6.15,3.89-2.92-3.8-7.96-7.53-7.96-7.53-.48-.82-1.04-1.63-1.65-2.41,4.14,2.83,7.91,6.15,11.25,9.87,1.24,1.55,2.37,3.53,3.25,5.79.24.62.45,1.24.63,1.84,2.74,9.26,1.06,19.66-2.04,28.18-3.57,9.82-9.51,18.99-16.48,26.78ZM487.35,26.55c12.25,16.76,1.65,49.06-28.2,71.65h-26.75v-2.82c8.14-3.86,12.97-7.53,12.97-7.53l6.86,9.74s5.31-3.33,10.65-7.72h0s0,0,0,0l-8.22-9.3h0c3.14-2.79,6-5.69,8.58-8.68,0,0,8.52,7.57,9.46,8.46,2.7-3.05,5.19-6.26,7.39-9.6-4.44-3.52-10.22-7.49-10.31-7.55h0s0,0,0,0h0s3.48-5.56,4.89-8.95c0,0,5.62,3.07,10.94,6.52,1.3-2.91,2.38-5.92,3.15-9.01-3.49-2.1-11.25-5.57-11.25-5.57.67-2.61,1.06-5.16,1.17-7.63,0,0,5.65,1.79,11.33,4.64.09-2.39-.06-4.76-.48-7.04-4.82-2.31-11.22-3.88-11.22-3.88-.34-1.93-.89-3.79-1.67-5.52,0,0,5.83,1.09,10.97,3.18-1.29-2.85-2.87-4.47-2.87-4.47-3.3-1.81-10.81-3.18-10.81-3.18-.81-1.03-1.74-2.02-2.72-2.88,2.36.33,6.04,1.16,6.04,1.16-4.05-1.98-8.61-3.12-8.66-3.14,0,0-.9-.59-1.98-1.17,0,0,11.31,2.32,17.46,6.95.56.42,1.09.89,1.63,1.41.62.59,1.16,1.26,1.64,1.91ZM472.21,23.16c7.02,9.45,4.47,24.12-5.06,38.18-2.51,3.78-5.53,7.51-9,11.06-2.92,3.03-5.88,5.66-8.7,7.9-4.4,3.52-9.13,6.56-14,8.96-1.02.54-2.04,1.05-3.05,1.54v-18.57c.63-.43,1.25-.87,1.88-1.33.85,1.44,6.51,10.47,6.61,10.62.42-.27,1.64-1.05,3.12-2.05,1.7-1.17,3.72-2.63,5.59-4.18.08-.07.17-.15.25-.22l-8.64-9.91c.88-.86,3.8-3.77,6.12-6.53.54.42,7.74,6,10.62,8.58,2.28-2.48,4.35-5.05,6.18-7.67-3.97-2.6-12.21-7.31-12.21-7.31,1.37-2.17,2.55-4.35,3.51-6.5,0,0,9.61,3.76,13.53,5.69,1.03-2.09,1.9-4.19,2.6-6.28.1-.31.2-.61.3-.92-4.87-1.97-13.56-4.04-14.35-4.23.51-1.88.85-3.71.99-5.47,7.04.7,13.48,2.31,14.82,2.65.2-2.03.17-3.96-.08-5.76-7.85-1.41-14.02-1.43-14.82-1.42-.18-1.39-.5-2.72-.98-3.96,0,0,6.97-.61,14.25.24-.38-.75-.86-1.61-1.34-2.3-.38-.55-1.21-1.57-1.21-1.57,0,0-6.15-.46-13.29.6-.68-.98-1.44-1.79-2.2-2.46.15-.04,5.53-1.28,12.04-1.26-1.79-1.23-3.65-2.06-3.65-2.06h0c-5.04.1-10.32,1.5-10.73,1.61-1.44-.84-2.56-1.18-2.7-1.23,0,0,0,0-.01,0,0,0,0,0,0,0,.41-.12,4.29-1.3,7.15-1.61,0,0,0,0-.01,0-3.88-.51-9.21.71-9.83.85-.83-.17-1.99-.32-2.84-.4,0,0,2.87-.83,6.68-1.36,3.46-.49,15.07-1.91,22.48,8.07ZM452.97,22.41c7.73,8.86,1.32,27.07-14.3,40.67-1.99,1.73-4.03,3.3-6.1,4.71-.06.04-.11.07-.17.11v-4.31c1.52-.98,3.04-2.08,4.53-3.28l-4.53-5.29v-7.22s0,0,.02.01c2.09,1.45,5.52,3.86,7.84,5.48.75.55,1.54,1.13,2.37,1.76,0,0,2.88-3.05,4.34-5.23h0s0,0,0,0c-3.35-1.86-12.08-5.67-12.08-5.67.74-1.17,1.36-2.38,1.86-3.6,1.88.43,9.03,2.15,13.73,3.56.83-1.63,1.53-3.3,2.07-4.99-7.07-1.32-14.83-1.57-14.83-1.57.4-1.44.44-2.97.44-2.97.42-.03,11.05-.6,15.51-.36.17-1.39.21-2.75.11-3.96-7.54.2-15.71,2.03-15.71,2.03,0,0-.11-.91-.49-2.11,8.67-2.78,15.41-3.55,15.41-3.55-.37-.99-.85-1.89-1.44-2.69,0,0-7.51,1.55-14.57,4.57-.03.01-.07.03-.12.05-.29-.5-.61-.97-.99-1.41,0,0,6.64-3.47,13.54-5.4-.72-.55-1.55-1.04-2.41-1.44-6.34,2.16-12.1,5.76-12.18,5.81-.07-.06-.63-.51-1.24-.87.3-.22,4.69-3.35,10.63-5.87-.87-.2-1.79-.33-2.75-.4-3.98,1.71-8.98,5.67-8.98,5.67l-.06-.04v-1.57c1.77-1.41,4.05-2.94,6.02-4.06-1.27.08-2.6.27-3.96.56-.71.47-1.39.98-2.07,1.51v-2.04c.42-.16,1.14-.41,2.2-.65.53-.12,1.06-.22,1.58-.31.17-.03.37-.06.55-.08,6.83-.98,12.71.41,16.24,4.46ZM432.4,43.1v-16.16c.38.22.73.48,1.06.78,3.51,3.18,2.93,9.71-1.06,15.39ZM454.19,12.55c-7.44,0-14.75,1.28-21.72,3.8l-.08.03V0h98.2v98.2h-15.76c2.36-6.81,3.58-13.98,3.58-21.19,0-35.54-28.81-64.46-64.22-64.46ZM391.25,31.31c2.39,2.14,4.16,4.72,5.29,7.74,1.13,3.03,1.7,6.37,1.7,10.03,0,8.19-2.58,14.33-7.74,18.4-5.16,4.07-12.45,6.11-21.86,6.11h-26.47V24.58h26.47c5.23,0,9.71.59,13.43,1.76,3.73,1.18,6.79,2.83,9.18,4.97ZM382.39,55.23c.54-1.66.82-3.7.82-6.14,0-2.31-.26-4.28-.78-5.92-.52-1.63-1.38-2.97-2.58-4.02-1.2-1.05-2.77-1.81-4.7-2.29-1.94-.48-4.33-.72-7.16-.72h-11.57v25.88h11.57c2.74,0,5.09-.22,7.02-.65,1.94-.44,3.52-1.15,4.74-2.16,1.22-1,2.1-2.33,2.65-3.99ZM285.89,53.47v9.08h33.14l-.26,11.05h-47.13V24.57h45.82l.26,11.18h-31.83v8.1h26.8v9.61h-26.8ZM199.28,24.58h51.11l.33,11.57h-18.76v37.45h-14.31v-37.45h-18.76l.39-11.57ZM162.68,73.6V24.58h14.51v49.02h-14.51ZM122.42,48.95v-24.38h12.94v49.02h-9.35l-28.89-27.39-3.73-3.72-.19.06.13,5.29v25.75h-12.94V24.58h11.76l26.54,25.95,3.72,3.79.13-.13-.13-5.23ZM40.98,52.22v-27.65h14.18v27.52c0,7.62-2.31,13.29-6.93,16.99-4.62,3.7-11.44,5.56-20.46,5.56s-15.85-1.86-20.62-5.59c-4.77-3.73-7.16-9.38-7.16-16.96v-27.52h14.25v27.65c0,3.7,1.09,6.46,3.27,8.27,2.18,1.81,5.6,2.71,10.26,2.71s7.97-.9,10.07-2.71c2.09-1.81,3.14-4.57,3.14-8.27Z"/>
        </g>
      </g>
    </g>
  </g>
</svg>