<?xml version="1.0" encoding="UTF-8"?>
<svg id="Layer_2" data-name="Layer 2" xmlns="http://www.w3.org/2000/svg" viewBox="0 0 99.4 47.73">
  <defs>
    <style>
      .cls-1 {
        fill-rule: evenodd;
      }

      .cls-1, .cls-2 {
        fill: #fff;
      }
    </style>
  </defs>
  <g id="icon">
    <g>
      <path class="cls-1" d="M70.76,23.5h-1.95c-.39,0-.61.22-.61.62v6.81c-.76-1.11-1.98-1.72-3.47-1.72-3.45,0-5.5,2.49-5.5,6.78s2.04,6.78,5.49,6.78c1.53,0,2.78-.64,3.54-1.75l.21.98c.06.37.31.55.67.55h1.62c.39,0,.61-.21.61-.61v-17.82c0-.4-.21-.62-.61-.62ZM65.36,40.39c-1.7,0-2.83-1.44-2.83-4.04v-.73c0-2.6,1.12-4.04,2.83-4.04,1.92,0,2.9,1.38,2.9,4.42s-.98,4.41-2.9,4.41Z"/>
      <path class="cls-1" d="M74.66,32.88c.49-2.27,2.56-3.68,5.28-3.68,3.48,0,5.21,1.81,5.22,4.97v7.76c0,.39-.21.61-.61.61h-1.62c-.37,0-.61-.18-.67-.55l-.18-.98c-.76,1.1-2.01,1.75-3.57,1.75-2.59,0-4.3-1.54-4.3-3.93,0-2.79,1.95-4.23,6.07-4.23h1.7v-.49c0-1.69-.7-2.55-2.04-2.55-1.07,0-1.68.46-1.98,1.44-.12.4-.34.55-.67.55h-2.08c-.42,0-.64-.27-.55-.68ZM79.39,40.39c1.55,0,2.59-.94,2.59-3.22v-.43h-1.59c-1.92,0-2.89.64-2.9,1.96,0,1.04.76,1.68,1.89,1.68Z"/>
      <path class="cls-2" d="M3.95,42.54c-.37,0-.58-.15-.7-.52C1.82,38.04.84,34.08.02,30.09c-.09-.4.09-.68.52-.68h1.98c.37,0,.61.18.67.52.52,2.82,1.13,5.73,1.95,8.59l2.38-8.59c.09-.34.33-.52.7-.52h2.68c.37,0,.61.18.7.52l2.38,8.59c.82-2.85,1.44-5.77,1.95-8.59.06-.34.31-.52.67-.52h1.98c.42,0,.61.27.52.68-.82,3.99-1.79,7.94-3.23,11.93-.12.37-.33.52-.7.52h-2.23c-.33,0-.61-.15-.7-.52l-2.68-9.45-2.68,9.45c-.09.37-.37.52-.7.52h-2.23Z"/>
      <path class="cls-1" d="M27.03,29.21c-3.72,0-6.31,2.7-6.31,6.78s2.59,6.78,6.31,6.78,6.31-2.73,6.31-6.78-2.59-6.78-6.31-6.78ZM30.05,36.35c0,2.7-1.19,4.23-3.02,4.23s-3.02-1.53-3.02-4.23v-.73c0-2.7,1.19-4.23,3.02-4.23s3.02,1.53,3.02,4.23v.73Z"/>
      <path class="cls-2" d="M91.99,42.26c-1.95-3.34-3.64-7.63-4.7-12.17-.09-.43.12-.68.55-.67h1.98c.37,0,.61.18.67.55.64,3.19,1.65,6.29,2.93,8.86,1.13-2.82,2.17-5.77,2.72-8.86.06-.37.31-.55.67-.55h2.04c.42,0,.64.28.52.7-1.4,5.61-3.41,10.49-5.15,14.23-1.13,2.42-2.44,3.37-4.82,3.37-.46,0-.94-.09-1.34-.18-.37-.09-.52-.34-.52-.68v-1.47c0-.43.25-.58.67-.46.37.09.73.15,1.06.15,1.4,0,1.89-.92,2.72-2.82Z"/>
      <path class="cls-2" d="M39.2,31.08c.67-1.08,1.86-1.81,3.23-1.81.52,0,.97.12,1.34.4.12.09.21.22.21.4v1.81c0,.43-.18.55-.64.37-.37-.16-.74-.22-1.16-.22-1.86,0-2.93,1.32-2.93,3.22v6.69c0,.39-.21.61-.61.61h-1.96c-.39,0-.61-.21-.61-.61v-11.9c0-.39.21-.61.61-.61h1.62c.4,0,.61.21.67.55l.21,1.1Z"/>
      <path class="cls-2" d="M57.5,41.81c-1.34-2.76-2.62-4.66-4.42-6.41l4.21-5.21c.31-.43.16-.77-.33-.77h-2.19c-.31,0-.58.12-.76.34l-4.27,5.46v-11.1c0-.4-.21-.62-.61-.62h-1.95c-.39,0-.61.22-.61.62v17.82c0,.4.21.61.61.61h1.95c.39,0,.61-.21.61-.61v-6.01c1.89,1.84,3.2,3.8,4.3,6.25.12.22.42.37.73.37h2.41c.49,0,.58-.24.34-.73Z"/>
      <path class="cls-2" d="M28.01,12.45c5.98-5.99,13.94-9.29,22.4-9.29s16.4,3.29,22.37,9.27c3.42,3.42,5.95,7.48,7.5,11.91.07.19.24.32.45.32h2.35c.32,0,.55-.31.45-.62-1.67-5.17-4.56-9.9-8.51-13.85C68.45,3.62,59.71,0,50.42,0s-18.07,3.63-24.65,10.22c-3.94,3.95-6.82,8.67-8.49,13.83-.1.31.13.62.45.62h2.35c.2,0,.38-.13.45-.32,1.54-4.42,4.07-8.47,7.48-11.89Z"/>
    </g>
  </g>
</svg>